<svg width="93" height="93" viewBox="0 0 93 93" fill="none" xmlns="http://www.w3.org/2000/svg">
<mask id="path-1-inside-1_2_195" fill="white">
<path fill-rule="evenodd" clip-rule="evenodd" d="M46.541 92.9583C71.9461 92.9583 92.541 72.3633 92.541 46.9583C92.541 21.5532 71.9461 0.958252 46.541 0.958252C21.1359 0.958252 0.541016 21.5532 0.541016 46.9583C0.541016 72.3633 21.1359 92.9583 46.541 92.9583ZM67.2784 21.9402C66.1789 23.0789 65.9041 23.8642 64.9224 28.3405C63.5874 34.5838 60.6424 48.0128 59.3466 53.8634C58.0509 59.8318 58.0901 60.892 59.7393 62.5412C61.2314 64.0333 62.7628 64.2689 64.6476 63.3265C66.0611 62.5805 66.925 60.7742 67.5925 57.0047C67.9066 55.277 68.4564 52.6069 68.8097 51.1148C69.1631 49.5834 70.027 45.6175 70.7338 42.2799C71.4406 38.9423 72.6185 33.6022 73.3253 30.4609C74.8174 23.9427 74.6996 22.8433 72.3829 21.4297C70.4982 20.291 68.7705 20.448 67.2784 21.9402ZM41.6377 25.3388C40.9309 25.8492 40.2634 26.5953 40.1456 27.0272C39.5566 28.8727 39.1247 30.7182 38.7713 32.9171C38.5749 34.2129 37.8682 37.5505 37.2006 40.3777C36.5331 43.1655 35.5515 47.6026 35.041 50.1942C34.5305 52.7857 33.6274 56.8694 33.0777 59.3039C32.1353 63.3875 32.1353 63.8195 32.6458 65.1152C33.7845 67.746 37.7504 68.4136 39.7529 66.2539C40.656 65.2723 41.3628 62.8378 42.5015 56.673C42.8157 55.0631 43.6795 50.9009 44.4256 47.4455C44.9778 45.0157 45.53 42.4499 45.8911 40.7723C46.0435 40.0642 46.1619 39.5143 46.2318 39.1997C46.4674 38.1002 47.0171 35.6265 47.4491 33.7024C48.2736 30.0507 48.4307 28.2052 48.038 26.988C47.6846 25.9278 45.4072 24.4749 44.0329 24.4749C43.4047 24.4749 42.3052 24.8676 41.6377 25.3388ZM26.0098 34.519C26.5203 32.2808 26.9129 31.4563 27.8553 30.6709C29.8186 28.9825 33.117 29.493 34.2557 31.6133C35.041 33.1447 35.0017 34.4012 34.0986 38.1707C33.0384 42.5685 31.5856 49.1652 29.1511 60.7094L27.0307 70.7222L25.5779 71.9788C23.968 73.3923 22.8293 73.5887 21.1016 72.6855C18.7064 71.4683 18.2352 69.5835 19.3346 65.4606C19.6487 64.2041 20.4341 60.6309 21.0623 57.5289C22.4366 50.7751 24.0073 43.3931 24.8318 39.8984C24.8896 39.6386 24.9553 39.3443 25.026 39.0275L25.0268 39.0241L25.027 39.023C25.341 37.6166 25.7537 35.7676 26.0098 34.519ZM54.2421 29.7437C53.7709 29.8223 53.0248 30.3327 52.5536 30.8039C51.6505 31.7856 51.2971 33.1206 47.6061 50.2799C46.5852 54.9132 45.3287 60.6853 44.8182 63.0806C44.3078 65.4758 43.8758 68.0673 43.8758 68.8134C43.8758 71.7191 47.1742 73.8002 49.6872 72.5044C51.5327 71.562 52.0432 70.5018 53.1034 65.358C54.2421 59.9786 55.6556 53.5782 58.2865 41.7199C60.0927 33.5525 60.0927 33.3562 59.4644 31.9819C59.0325 31.0788 58.3257 30.4113 57.4226 30.0186C56.0483 29.4689 55.7734 29.4296 54.2421 29.7437Z"/>
</mask>
<path fill-rule="evenodd" clip-rule="evenodd" d="M46.541 92.9583C71.9461 92.9583 92.541 72.3633 92.541 46.9583C92.541 21.5532 71.9461 0.958252 46.541 0.958252C21.1359 0.958252 0.541016 21.5532 0.541016 46.9583C0.541016 72.3633 21.1359 92.9583 46.541 92.9583ZM67.2784 21.9402C66.1789 23.0789 65.9041 23.8642 64.9224 28.3405C63.5874 34.5838 60.6424 48.0128 59.3466 53.8634C58.0509 59.8318 58.0901 60.892 59.7393 62.5412C61.2314 64.0333 62.7628 64.2689 64.6476 63.3265C66.0611 62.5805 66.925 60.7742 67.5925 57.0047C67.9066 55.277 68.4564 52.6069 68.8097 51.1148C69.1631 49.5834 70.027 45.6175 70.7338 42.2799C71.4406 38.9423 72.6185 33.6022 73.3253 30.4609C74.8174 23.9427 74.6996 22.8433 72.3829 21.4297C70.4982 20.291 68.7705 20.448 67.2784 21.9402ZM41.6377 25.3388C40.9309 25.8492 40.2634 26.5953 40.1456 27.0272C39.5566 28.8727 39.1247 30.7182 38.7713 32.9171C38.5749 34.2129 37.8682 37.5505 37.2006 40.3777C36.5331 43.1655 35.5515 47.6026 35.041 50.1942C34.5305 52.7857 33.6274 56.8694 33.0777 59.3039C32.1353 63.3875 32.1353 63.8195 32.6458 65.1152C33.7845 67.746 37.7504 68.4136 39.7529 66.2539C40.656 65.2723 41.3628 62.8378 42.5015 56.673C42.8157 55.0631 43.6795 50.9009 44.4256 47.4455C44.9778 45.0157 45.53 42.4499 45.8911 40.7723C46.0435 40.0642 46.1619 39.5143 46.2318 39.1997C46.4674 38.1002 47.0171 35.6265 47.4491 33.7024C48.2736 30.0507 48.4307 28.2052 48.038 26.988C47.6846 25.9278 45.4072 24.4749 44.0329 24.4749C43.4047 24.4749 42.3052 24.8676 41.6377 25.3388ZM26.0098 34.519C26.5203 32.2808 26.9129 31.4563 27.8553 30.6709C29.8186 28.9825 33.117 29.493 34.2557 31.6133C35.041 33.1447 35.0017 34.4012 34.0986 38.1707C33.0384 42.5685 31.5856 49.1652 29.1511 60.7094L27.0307 70.7222L25.5779 71.9788C23.968 73.3923 22.8293 73.5887 21.1016 72.6855C18.7064 71.4683 18.2352 69.5835 19.3346 65.4606C19.6487 64.2041 20.4341 60.6309 21.0623 57.5289C22.4366 50.7751 24.0073 43.3931 24.8318 39.8984C24.8896 39.6386 24.9553 39.3443 25.026 39.0275L25.0268 39.0241L25.027 39.023C25.341 37.6166 25.7537 35.7676 26.0098 34.519ZM54.2421 29.7437C53.7709 29.8223 53.0248 30.3327 52.5536 30.8039C51.6505 31.7856 51.2971 33.1206 47.6061 50.2799C46.5852 54.9132 45.3287 60.6853 44.8182 63.0806C44.3078 65.4758 43.8758 68.0673 43.8758 68.8134C43.8758 71.7191 47.1742 73.8002 49.6872 72.5044C51.5327 71.562 52.0432 70.5018 53.1034 65.358C54.2421 59.9786 55.6556 53.5782 58.2865 41.7199C60.0927 33.5525 60.0927 33.3562 59.4644 31.9819C59.0325 31.0788 58.3257 30.4113 57.4226 30.0186C56.0483 29.4689 55.7734 29.4296 54.2421 29.7437Z" fill="#00B265"/>
<path d="M64.9224 28.3405L56.1313 26.4127L56.1263 26.4356L56.1214 26.4585L64.9224 28.3405ZM67.2784 21.9402L60.9144 15.5762L60.8586 15.632L60.8038 15.6888L67.2784 21.9402ZM59.3466 53.8634L50.5596 51.9173L50.5555 51.9356L50.5515 51.9539L59.3466 53.8634ZM59.7393 62.5412L53.3753 68.9051L53.3753 68.9052L59.7393 62.5412ZM64.6476 63.3265L68.6725 71.3764L68.7609 71.3321L68.8484 71.286L64.6476 63.3265ZM67.5925 57.0047L58.7377 55.3947L58.734 55.415L58.7304 55.4354L67.5925 57.0047ZM68.8097 51.1148L77.5675 53.189L77.5734 53.1638L77.5793 53.1385L68.8097 51.1148ZM73.3253 30.4609L64.5523 28.4526L64.5485 28.4689L64.5448 28.4853L73.3253 30.4609ZM72.3829 21.4297L77.0707 13.7469L77.0539 13.7367L77.037 13.7265L72.3829 21.4297ZM40.1456 27.0272L48.7195 29.7636L48.7779 29.5806L48.8285 29.3953L40.1456 27.0272ZM41.6377 25.3388L36.4475 17.9861L36.4077 18.0142L36.3683 18.0427L41.6377 25.3388ZM38.7713 32.9171L29.8853 31.489L29.8789 31.5289L29.8728 31.5689L38.7713 32.9171ZM37.2006 40.3777L45.9532 42.4734L45.9565 42.4596L45.9598 42.4458L37.2006 40.3777ZM35.041 50.1942L43.8713 51.9335L43.8713 51.9335L35.041 50.1942ZM33.0777 59.3039L41.8472 61.3276L41.852 61.3069L41.8567 61.2862L33.0777 59.3039ZM32.6458 65.1152L24.2721 68.4139L24.3269 68.553L24.3863 68.6902L32.6458 65.1152ZM39.7529 66.2539L46.3523 72.3734L46.3643 72.3604L46.3763 72.3475L39.7529 66.2539ZM42.5015 56.673L33.6681 54.9494L33.6595 54.9938L33.6513 55.0383L42.5015 56.673ZM44.4256 47.4455L35.6494 45.451L35.6386 45.4985L35.6283 45.5461L44.4256 47.4455ZM45.8911 40.7723L54.6896 42.666L54.6896 42.666L45.8911 40.7723ZM46.2318 39.1997L55.0175 41.1521L55.0249 41.1188L55.032 41.0854L46.2318 39.1997ZM47.4491 33.7024L38.6701 31.7201L38.6676 31.7311L47.4491 33.7024ZM48.038 26.988L56.6034 24.2249L56.59 24.1833L56.5762 24.1419L48.038 26.988ZM27.8553 30.6709L33.617 37.5849L33.6707 37.5402L33.7237 37.4946L27.8553 30.6709ZM26.0098 34.519L17.2351 32.5178L17.2132 32.6139L17.1934 32.7105L26.0098 34.519ZM34.2557 31.6133L42.264 27.5065L42.2251 27.4304L42.1846 27.3552L34.2557 31.6133ZM34.0986 38.1707L42.848 40.28L42.8509 40.2676L34.0986 38.1707ZM29.1511 60.7094L37.9558 62.5739L37.9574 62.5665L29.1511 60.7094ZM27.0307 70.7222L32.9181 77.5295L35.2082 75.5489L35.8355 72.5868L27.0307 70.7222ZM25.5779 71.9788L19.6905 65.1715L19.665 65.1935L19.6397 65.2158L25.5779 71.9788ZM21.1016 72.6855L25.2709 64.7095L25.2251 64.6856L25.179 64.6622L21.1016 72.6855ZM19.3346 65.4606L28.0307 67.7796L28.0488 67.7116L28.0659 67.6434L19.3346 65.4606ZM21.0623 57.5289L12.243 55.7343L12.2414 55.7424L21.0623 57.5289ZM24.8318 39.8984L33.5913 41.9653L33.6048 41.9081L33.6175 41.8508L24.8318 39.8984ZM25.026 39.0275L16.2435 37.061L16.2422 37.0668L25.026 39.0275ZM25.0268 39.0241L33.8093 40.9905L33.8113 40.9815L25.0268 39.0241ZM25.027 39.023L16.2432 37.0622L16.2424 37.0656L25.027 39.023ZM52.5536 30.8039L46.1897 24.44L46.0571 24.5725L45.9303 24.7104L52.5536 30.8039ZM54.2421 29.7437L55.7216 38.6213L55.8867 38.5938L56.0506 38.5602L54.2421 29.7437ZM47.6061 50.2799L56.3953 52.2165L56.4001 52.1945L56.4049 52.1725L47.6061 50.2799ZM49.6872 72.5044L45.5942 64.489L45.5784 64.497L45.5626 64.5052L49.6872 72.5044ZM53.1034 65.358L44.2985 63.4942L44.2935 63.5177L44.2886 63.5412L53.1034 65.358ZM58.2865 41.7199L67.0728 43.6692L67.0741 43.6633L58.2865 41.7199ZM59.4644 31.9819L67.6497 28.2401L67.6173 28.1691L67.5836 28.0988L59.4644 31.9819ZM57.4226 30.0186L61.0111 21.765L60.8889 21.7118L60.7651 21.6623L57.4226 30.0186ZM83.541 46.9583C83.541 67.3928 66.9755 83.9583 46.541 83.9583V101.958C76.9167 101.958 101.541 77.3339 101.541 46.9583H83.541ZM46.541 9.95825C66.9755 9.95825 83.541 26.5237 83.541 46.9583H101.541C101.541 16.5826 76.9167 -8.04175 46.541 -8.04175V9.95825ZM9.54102 46.9583C9.54102 26.5237 26.1065 9.95825 46.541 9.95825V-8.04175C16.1654 -8.04175 -8.45898 16.5826 -8.45898 46.9583H9.54102ZM46.541 83.9583C26.1065 83.9583 9.54102 67.3928 9.54102 46.9583H-8.45898C-8.45898 77.3339 16.1654 101.958 46.541 101.958V83.9583ZM73.7135 30.2684C73.9568 29.1589 74.1335 28.3836 74.2792 27.8037C74.35 27.5215 74.4048 27.3208 74.4464 27.1784C74.4881 27.0361 74.5087 26.9799 74.5076 26.983C74.4956 27.0158 74.3881 27.2963 74.1496 27.6664C73.9162 28.0286 73.7124 28.2335 73.753 28.1915L60.8038 15.6888C59.4968 17.0425 58.4186 18.5719 57.6048 20.7945C57.0247 22.3792 56.5858 24.34 56.1313 26.4127L73.7135 30.2684ZM68.1337 55.8095C69.4311 49.9516 72.3816 36.4977 73.7234 30.2225L56.1214 26.4585C54.7932 32.6699 51.8537 46.074 50.5596 51.9173L68.1337 55.8095ZM66.1033 56.1772C65.9771 56.051 66.4204 56.4569 66.8265 57.2576C67.0369 57.6724 67.1931 58.1028 67.295 58.5229C67.3935 58.9287 67.4219 59.2452 67.4298 59.4232C67.4372 59.5916 67.4268 59.6489 67.4353 59.5469C67.4438 59.4455 67.4657 59.2472 67.5186 58.9133C67.6288 58.2177 67.8225 57.2434 68.1418 55.7729L50.5515 51.9539C49.9765 54.6025 49.3312 57.5987 49.4475 60.2208C49.5204 61.8663 49.8787 63.6361 50.7735 65.4001C51.6103 67.0499 52.6769 68.2067 53.3753 68.9051L66.1033 56.1772ZM60.6226 55.2767C60.8065 55.1847 61.8764 54.7075 63.4554 54.9578C65.0459 55.2099 65.932 56.006 66.1033 56.1772L53.3753 68.9052C55.0387 70.5685 57.4365 72.2284 60.637 72.7358C63.8259 73.2413 66.6038 72.4107 68.6725 71.3764L60.6226 55.2767ZM58.7304 55.4354C58.5978 56.1841 58.4766 56.7125 58.376 57.0756C58.2737 57.4451 58.2189 57.5474 58.2502 57.4805C58.2846 57.407 58.4501 57.0717 58.8238 56.6426C59.2232 56.1842 59.7686 55.725 60.4467 55.3671L68.8484 71.286C71.7573 69.7507 73.5008 67.356 74.5494 65.1183C75.5224 63.0418 76.0709 60.7409 76.4546 58.574L58.7304 55.4354ZM60.052 49.0406C59.6552 50.7159 59.0741 53.5442 58.7377 55.3947L76.4473 58.6147C76.7391 57.0097 77.2575 54.4979 77.5675 53.189L60.052 49.0406ZM61.929 40.4154C61.2238 43.7456 60.3741 47.6442 60.0402 49.091L77.5793 53.1385C77.9522 51.5226 78.8302 47.4895 79.5385 44.1445L61.929 40.4154ZM64.5448 28.4853C63.8333 31.6475 62.6465 37.0275 61.929 40.4154L79.5385 44.1445C80.2347 40.8571 81.4037 35.5568 82.1058 32.4365L64.5448 28.4853ZM67.6952 29.1125C67.9769 29.2844 67.3047 28.9365 66.6091 28.0408C66.227 27.5487 65.9051 26.983 65.6745 26.3733C65.4513 25.7831 65.3647 25.2869 65.3313 24.9678C65.277 24.4487 65.3613 24.3398 65.241 25.1109C65.1304 25.8194 64.9193 26.8494 64.5523 28.4526L82.0984 32.4692C82.7367 29.681 83.5546 26.1618 83.2336 23.0943C83.0205 21.0581 82.3219 18.9271 80.8256 17.0003C79.503 15.2972 77.9473 14.2818 77.0707 13.7469L67.6952 29.1125ZM73.6423 28.3041C73.2393 28.7071 72.1947 29.4959 70.5586 29.6557C68.9908 29.8089 67.9667 29.2766 67.7289 29.1329L77.037 13.7265C74.9144 12.4441 72.0841 11.421 68.8083 11.741C65.464 12.0678 62.8095 13.6811 60.9144 15.5762L73.6423 28.3041ZM48.8285 29.3953C48.654 30.0349 48.4384 30.5236 48.2879 30.8291C48.1306 31.1484 47.9813 31.3945 47.8735 31.5602C47.6639 31.8824 47.4881 32.0895 47.4034 32.185C47.2437 32.3651 47.0982 32.4969 46.9071 32.6349L36.3683 18.0427C35.4703 18.6912 34.6378 19.4512 33.9381 20.2399C33.5231 20.7078 32.1022 22.3145 31.4627 24.6592L48.8285 29.3953ZM47.6572 34.3452C47.9487 32.5314 48.2838 31.1287 48.7195 29.7636L31.5716 24.2909C30.8293 26.6168 30.3006 28.9051 29.8853 31.489L47.6572 34.3452ZM45.9598 42.4458C46.6278 39.6166 47.4128 35.9609 47.6697 34.2654L29.8728 31.5689C29.7371 32.4649 29.1085 35.4844 28.4415 38.3095L45.9598 42.4458ZM43.8713 51.9335C44.3535 49.4854 45.3076 45.1697 45.9532 42.4734L28.448 38.282C27.7586 41.1614 26.7494 45.7198 26.2107 48.4549L43.8713 51.9335ZM41.8567 61.2862C42.4066 58.8507 43.3344 54.6592 43.8713 51.9335L26.2107 48.4548C25.7266 50.9122 24.8482 54.888 24.2987 57.3215L41.8567 61.2862ZM41.0194 61.8165C40.9335 61.5983 41.0855 61.9419 41.1921 62.477C41.2489 62.7623 41.2834 63.0458 41.2974 63.3153C41.311 63.5749 41.3028 63.7702 41.2955 63.8762C41.2886 63.9758 41.2819 64.0033 41.2932 63.9278C41.3044 63.8524 41.3277 63.7137 41.3726 63.4847C41.466 63.0083 41.6132 62.3417 41.8472 61.3276L24.3082 57.2801C23.8901 59.0917 23.452 60.991 23.3384 62.6338C23.1587 65.2316 23.7411 67.066 24.2721 68.4139L41.0194 61.8165ZM33.1535 60.1345C34.5685 58.6085 36.3056 58.4322 37.3243 58.5984C38.3211 58.761 40.018 59.4903 40.9053 61.5402L24.3863 68.6902C26.4123 73.371 30.6614 75.7494 34.4265 76.3636C38.2135 76.9813 42.9347 76.059 46.3523 72.3734L33.1535 60.1345ZM33.6513 55.0383C33.0883 58.0862 32.6918 59.8685 32.3894 60.9197C32.2426 61.4304 32.1758 61.5603 32.2152 61.474C32.252 61.3934 32.5112 60.8325 33.1295 60.1604L46.3763 72.3475C48.349 70.2032 49.2063 67.5705 49.6883 65.8946C50.2498 63.942 50.7761 61.4246 51.3518 58.3078L33.6513 55.0383ZM35.6283 45.5461C34.8771 49.0255 33.9989 53.2541 33.6681 54.9494L51.335 58.3966C51.6324 56.8721 52.482 52.7764 53.2229 49.345L35.6283 45.5461ZM37.0926 38.8786C36.7303 40.5619 36.1885 43.0789 35.6494 45.451L53.2018 49.4401C53.7671 46.9524 54.3298 44.338 54.6896 42.666L37.0926 38.8786ZM37.4461 37.2472C37.3679 37.5993 37.2412 38.1881 37.0926 38.8786L54.6896 42.666C54.8458 41.9403 54.9559 41.4294 55.0175 41.1521L37.4461 37.2472ZM38.6676 31.7311C38.2363 33.6523 37.6776 36.166 37.4316 37.3139L55.032 41.0854C55.2572 40.0344 55.7979 37.6007 56.2305 35.6738L38.6676 31.7311ZM39.4727 29.751C39.1534 28.7613 39.2746 28.1845 39.234 28.6508C39.1939 29.1107 39.0546 30.0173 38.6701 31.7201L56.228 35.6848C56.6681 33.7358 57.0196 31.8938 57.166 30.2137C57.3119 28.54 57.3153 26.4319 56.6034 24.2249L39.4727 29.751ZM44.0329 33.4749C42.9314 33.4749 42.2213 33.2169 42.0617 33.1578C41.8201 33.0682 41.6855 32.9894 41.6142 32.9444C41.5524 32.9054 41.3606 32.7807 41.0856 32.5051C40.9427 32.3619 40.7076 32.1082 40.4464 31.7349C40.1994 31.3817 39.8027 30.7425 39.4999 29.834L56.5762 24.1419C55.8506 21.965 54.5357 20.5009 53.8272 19.7909C52.9829 18.9448 52.0696 18.2581 51.2225 17.7233C49.871 16.8702 47.2195 15.4749 44.0329 15.4749V33.4749ZM46.8279 32.6915C46.5467 32.89 46.3315 33.0043 46.2206 33.0596C46.0992 33.1202 45.9939 33.1639 45.8951 33.1994C45.8014 33.2331 45.6423 33.2851 45.4115 33.3356C45.2251 33.3764 44.732 33.4749 44.0329 33.4749V15.4749C42.2229 15.4749 40.6669 15.951 39.8049 16.261C38.8178 16.6159 37.6043 17.1695 36.4475 17.9861L46.8279 32.6915ZM22.0937 23.7569C20.7356 24.8887 19.549 26.2931 18.6537 28.1622C17.916 29.7023 17.5144 31.2932 17.2351 32.5178L34.7845 36.5202C34.8874 36.0691 34.9535 35.8277 34.9895 35.7096C35.0242 35.5957 34.9981 35.7072 34.8875 35.9381C34.7628 36.1985 34.5658 36.5382 34.2822 36.8944C34.0043 37.2435 33.7497 37.4744 33.617 37.5849L22.0937 23.7569ZM42.1846 27.3552C40.0019 23.2907 36.1008 21.3229 32.698 20.8131C29.2597 20.2981 25.2149 21.0712 21.987 23.8473L33.7237 37.4946C32.459 38.5822 31.045 38.7664 30.0314 38.6145C29.0533 38.468 27.3708 37.8156 26.3267 35.8715L42.1846 27.3552ZM42.8509 40.2676C43.2986 38.3989 43.7565 36.3081 43.8075 34.2788C43.8722 31.7041 43.2993 29.5251 42.264 27.5065L26.2473 35.7202C26.1926 35.6134 26.0412 35.2914 25.9307 34.8236C25.8195 34.353 25.8091 33.9879 25.8132 33.8267C25.816 33.712 25.8244 33.7939 25.7512 34.209C25.6787 34.6205 25.5546 35.2046 25.3463 36.0738L42.8509 40.2676ZM37.9574 62.5665C40.3919 51.0222 41.8213 44.5389 42.848 40.28L25.3493 36.0615C24.2556 40.5981 22.7792 47.3083 20.3448 58.8523L37.9574 62.5665ZM35.8355 72.5868L37.9558 62.5739L20.3464 58.8449L18.226 68.8577L35.8355 72.5868ZM31.4653 78.786L32.9181 77.5295L21.1434 63.915L19.6905 65.1715L31.4653 78.786ZM16.9323 80.6616C18.7069 81.5892 21.4573 82.6265 24.8131 82.0867C27.9771 81.5778 30.2141 79.8849 31.5161 78.7417L19.6397 65.2158C19.3318 65.4862 20.1945 64.5982 21.9547 64.3151C23.9068 64.0011 25.2239 64.685 25.2709 64.7095L16.9323 80.6616ZM10.6385 63.1416C10.0109 65.4951 9.31953 68.8586 10.1675 72.31C11.2274 76.6242 14.1411 79.2437 17.0241 80.7089L25.179 64.6622C25.2914 64.7193 25.8253 65.007 26.4086 65.668C27.0469 66.3913 27.4557 67.2339 27.6477 68.0154C27.8163 68.7017 27.7606 69.106 27.7704 69.0013C27.7804 68.8954 27.8312 68.5277 28.0307 67.7796L10.6385 63.1416ZM12.2414 55.7424C11.6197 58.8122 10.8667 62.2243 10.6033 63.2778L28.0659 67.6434C28.4308 66.1838 29.2484 62.4496 29.8832 59.3154L12.2414 55.7424ZM16.0724 37.8316C15.2133 41.4724 13.6191 48.9719 12.243 55.7343L29.8816 59.3235C31.2541 52.5783 32.8012 45.3138 33.5913 41.9653L16.0724 37.8316ZM16.2422 37.0668C16.1717 37.3824 16.105 37.6812 16.0462 37.9461L33.6175 41.8508C33.6741 41.596 33.7388 41.3063 33.8098 40.9882L16.2422 37.0668ZM16.2442 37.0576L16.2435 37.061L33.8085 40.9939L33.8093 40.9905L16.2442 37.0576ZM16.2424 37.0656L16.2422 37.0667L33.8113 40.9815L33.8116 40.9805L16.2424 37.0656ZM17.1934 32.7105C16.9565 33.8652 16.5638 35.6261 16.2432 37.0622L33.8108 40.9838C34.1181 39.607 34.5509 37.67 34.8262 36.3275L17.1934 32.7105ZM58.9176 37.1679C58.6822 37.4033 58.4845 37.5554 58.277 37.6892C58.1607 37.7643 57.9396 37.8991 57.6173 38.0479C57.3509 38.1708 56.6805 38.4615 55.7216 38.6213L52.7625 20.8662C50.6679 21.2153 49.1029 22.187 48.5187 22.5639C47.7026 23.0905 46.8962 23.7334 46.1897 24.44L58.9176 37.1679ZM56.4049 52.1725C58.2683 43.5093 59.2366 39.0924 59.8468 36.6968C60.5394 33.978 60.4423 35.5222 59.177 36.8974L45.9303 24.7104C43.7619 27.0673 43.0365 29.7698 42.4038 32.2538C41.6888 35.0609 40.6349 39.8912 38.8074 48.3872L56.4049 52.1725ZM53.6206 64.9565C54.1246 62.5914 55.3759 56.8429 56.3953 52.2165L38.8169 48.3433C37.7945 52.9836 36.5328 58.7793 36.0159 61.2047L53.6206 64.9565ZM52.8758 68.8134C52.8758 68.9727 52.8704 69.0882 52.8676 69.1404C52.8645 69.198 52.8616 69.2308 52.8614 69.2326C52.8614 69.2327 52.8662 69.1802 52.8809 69.063C52.9104 68.8286 52.9612 68.4808 53.0354 68.0314C53.183 67.1375 53.3923 66.0277 53.6206 64.9565L36.0159 61.2047C35.7337 62.5287 35.4718 63.9123 35.2758 65.0994C35.1314 65.974 34.8758 67.5655 34.8758 68.8134H52.8758ZM45.5626 64.5052C47.6588 63.4243 49.622 63.9768 50.6562 64.6321C51.6994 65.2931 52.8758 66.7138 52.8758 68.8134H34.8758C34.8758 73.8187 37.7015 77.7328 41.0221 79.8368C44.3338 81.9352 49.2026 82.8802 53.8118 80.5036L45.5626 64.5052ZM44.2886 63.5412C44.0331 64.7812 43.8458 65.5993 43.6921 66.1694C43.5331 66.7594 43.48 66.813 43.5712 66.6223C43.6283 66.503 43.7394 66.2921 43.9207 66.0325C44.1074 65.7651 44.3362 65.4924 44.6042 65.2341C45.1452 64.7125 45.6068 64.4825 45.5942 64.489L53.7802 80.5199C56.093 79.3389 58.3023 77.5389 59.8083 74.3912C60.8539 72.2059 61.4282 69.5518 61.9181 67.1748L44.2886 63.5412ZM49.5001 39.7706C46.872 51.6166 45.4481 58.0632 44.2985 63.4942L61.9082 67.2218C63.0361 61.8939 64.4393 55.5398 67.0728 43.6692L49.5001 39.7706ZM51.2792 35.7238C51.4385 36.0723 51.0982 35.412 50.9375 34.5052C50.7809 33.6213 50.8741 33.0491 50.851 33.2437C50.8251 33.4621 50.7422 33.9806 50.5051 35.1346C50.2769 36.2452 49.9532 37.7216 49.4988 39.7764L67.0741 43.6633C67.92 39.8387 68.5113 37.1722 68.7258 35.3633C68.8499 34.3161 68.9382 32.9267 68.6614 31.3642C68.3804 29.7789 67.8045 28.5787 67.6497 28.2401L51.2792 35.7238ZM53.8341 38.2722C52.7962 37.821 51.8697 36.9615 51.3452 35.865L67.5836 28.0988C66.1954 25.1961 63.8552 23.0015 61.0111 21.765L53.8341 38.2722ZM56.0506 38.5602C56.397 38.4891 56.4002 38.4962 56.2773 38.5112C56.0908 38.5338 55.6524 38.5726 55.0764 38.5203C54.4964 38.4675 54.0639 38.3485 53.8718 38.2883C53.7515 38.2507 53.742 38.2396 54.0801 38.3749L60.7651 21.6623C60.2106 21.4405 58.6341 20.7695 56.7061 20.5942C54.785 20.4195 53.1187 20.7868 52.4336 20.9273L56.0506 38.5602Z" fill="#00B265" mask="url(#path-1-inside-1_2_195)"/>
</svg>
