<svg width="92" height="93" viewBox="0 0 92 93" fill="none" xmlns="http://www.w3.org/2000/svg">
<mask id="path-1-inside-1_2_177" fill="white">
<path fill-rule="evenodd" clip-rule="evenodd" d="M45.9995 92.9583C71.4046 92.9583 91.9995 72.3633 91.9995 46.9583C91.9995 43.8504 91.6913 40.8145 91.1038 37.8794C90.179 39.229 88.6262 40.1144 86.8666 40.1144H45.8035C42.9686 40.1144 40.6706 37.8163 40.6706 34.9815C40.6706 32.1467 42.9687 29.8486 45.8035 29.8486H86.8666C87.5787 29.8486 88.2569 29.9936 88.8733 30.2557C87.545 26.8486 85.8223 23.6388 83.7613 20.6825H61.2021C58.3673 20.6825 56.0693 18.3844 56.0693 15.5496C56.0693 12.7148 58.3673 10.4167 61.2022 10.4167H73.9447C66.1983 4.48371 56.5106 0.958252 45.9995 0.958252C20.5944 0.958252 -0.000488281 21.5532 -0.000488281 46.9583C-0.000488281 48.8594 0.114839 50.7335 0.338878 52.5742C1.07846 50.6479 2.94575 49.2805 5.13241 49.2805H46.1956C49.0304 49.2805 51.3285 51.5786 51.3285 54.4134C51.3285 57.2482 49.0304 59.5463 46.1956 59.5463H5.1324C3.60221 59.5463 2.22841 58.8767 1.28802 57.8146C2.218 61.6583 3.63073 65.3135 5.45842 68.7124H31.6524C34.4872 68.7124 36.7853 71.0105 36.7853 73.8453C36.7853 76.6801 34.4872 78.9782 31.6524 78.9782H12.9734C21.3341 87.6 33.0411 92.9583 45.9995 92.9583Z"/>
</mask>
<path fill-rule="evenodd" clip-rule="evenodd" d="M45.9995 92.9583C71.4046 92.9583 91.9995 72.3633 91.9995 46.9583C91.9995 43.8504 91.6913 40.8145 91.1038 37.8794C90.179 39.229 88.6262 40.1144 86.8666 40.1144H45.8035C42.9686 40.1144 40.6706 37.8163 40.6706 34.9815C40.6706 32.1467 42.9687 29.8486 45.8035 29.8486H86.8666C87.5787 29.8486 88.2569 29.9936 88.8733 30.2557C87.545 26.8486 85.8223 23.6388 83.7613 20.6825H61.2021C58.3673 20.6825 56.0693 18.3844 56.0693 15.5496C56.0693 12.7148 58.3673 10.4167 61.2022 10.4167H73.9447C66.1983 4.48371 56.5106 0.958252 45.9995 0.958252C20.5944 0.958252 -0.000488281 21.5532 -0.000488281 46.9583C-0.000488281 48.8594 0.114839 50.7335 0.338878 52.5742C1.07846 50.6479 2.94575 49.2805 5.13241 49.2805H46.1956C49.0304 49.2805 51.3285 51.5786 51.3285 54.4134C51.3285 57.2482 49.0304 59.5463 46.1956 59.5463H5.1324C3.60221 59.5463 2.22841 58.8767 1.28802 57.8146C2.218 61.6583 3.63073 65.3135 5.45842 68.7124H31.6524C34.4872 68.7124 36.7853 71.0105 36.7853 73.8453C36.7853 76.6801 34.4872 78.9782 31.6524 78.9782H12.9734C21.3341 87.6 33.0411 92.9583 45.9995 92.9583Z" fill="#00B265"/>
<path d="M91.1038 37.8794L99.9287 36.1129L95.7406 15.1911L83.6796 32.792L91.1038 37.8794ZM88.8733 30.2557L85.352 38.5382L105.022 46.9012L97.2586 26.9866L88.8733 30.2557ZM83.7613 20.6825L91.1444 15.5355L88.4583 11.6825H83.7613V20.6825ZM73.9447 10.4167V19.4167H100.497L79.4172 3.27162L73.9447 10.4167ZM0.338878 52.5742L-8.59518 53.6616L8.74089 55.8L0.338878 52.5742ZM1.28802 57.8146L8.02646 51.8485L-7.45958 59.931L1.28802 57.8146ZM5.45842 68.7124L-2.46826 72.9748L0.0792736 77.7124H5.45842V68.7124ZM12.9734 78.9782V69.9782H-8.29082L6.51236 85.2436L12.9734 78.9782ZM82.9995 46.9583C82.9995 67.3928 66.434 83.9583 45.9995 83.9583V101.958C76.3752 101.958 101 77.3339 101 46.9583H82.9995ZM82.2788 39.646C82.7506 42.0026 82.9995 44.4468 82.9995 46.9583H101C101 43.2539 100.632 39.6264 99.9287 36.1129L82.2788 39.646ZM86.8666 49.1144C91.7195 49.1144 95.9969 46.6604 98.5279 42.9669L83.6796 32.792C84.3611 31.7976 85.5329 31.1144 86.8666 31.1144V49.1144ZM45.8035 49.1144H86.8666V31.1144H45.8035V49.1144ZM31.6706 34.9815C31.6706 42.7869 37.9981 49.1144 45.8035 49.1144V31.1144C47.9392 31.1144 49.6706 32.8458 49.6706 34.9815H31.6706ZM45.8035 20.8486C37.9981 20.8486 31.6706 27.1761 31.6706 34.9815H49.6706C49.6706 37.1172 47.9392 38.8486 45.8035 38.8486V20.8486ZM86.8666 20.8486H45.8035V38.8486H86.8666V20.8486ZM92.3946 21.9731C90.6849 21.2462 88.8106 20.8486 86.8666 20.8486V38.8486C86.3468 38.8486 85.8289 38.741 85.352 38.5382L92.3946 21.9731ZM76.3783 25.8294C78.0372 28.2089 79.4215 30.7893 80.488 33.5248L97.2586 26.9866C95.6685 22.908 93.6075 19.0688 91.1444 15.5355L76.3783 25.8294ZM61.2021 29.6825H83.7613V11.6825H61.2021V29.6825ZM47.0693 15.5496C47.0693 23.355 53.3968 29.6825 61.2021 29.6825V11.6825C63.3379 11.6825 65.0693 13.4138 65.0693 15.5496H47.0693ZM61.2022 1.41669C53.3968 1.41669 47.0693 7.7442 47.0693 15.5496H65.0693C65.0693 17.6853 63.3379 19.4167 61.2022 19.4167V1.41669ZM73.9447 1.41669H61.2022V19.4167H73.9447V1.41669ZM45.9995 9.95825C54.464 9.95825 62.2416 12.7897 68.4722 17.5618L79.4172 3.27162C70.1551 -3.82223 58.5573 -8.04175 45.9995 -8.04175V9.95825ZM8.99951 46.9583C8.99951 26.5237 25.565 9.95825 45.9995 9.95825V-8.04175C15.6239 -8.04175 -9.00049 16.5826 -9.00049 46.9583H8.99951ZM9.27294 51.4867C9.09272 50.0061 8.99951 48.495 8.99951 46.9583H-9.00049C-9.00049 49.2237 -8.86304 51.461 -8.59518 53.6616L9.27294 51.4867ZM8.74089 55.8C8.18942 57.2364 6.79402 58.2805 5.13241 58.2805V40.2805C-0.902517 40.2805 -6.0325 44.0593 -8.06314 49.3483L8.74089 55.8ZM5.13241 58.2805H46.1956V40.2805H5.13241V58.2805ZM46.1956 58.2805C44.0598 58.2805 42.3285 56.5492 42.3285 54.4134H60.3285C60.3285 46.608 54.0009 40.2805 46.1956 40.2805V58.2805ZM42.3285 54.4134C42.3285 52.2777 44.0598 50.5463 46.1956 50.5463V68.5463C54.0009 68.5463 60.3285 62.2188 60.3285 54.4134H42.3285ZM46.1956 50.5463H5.1324V68.5463H46.1956V50.5463ZM5.1324 50.5463C6.28646 50.5463 7.3311 51.0632 8.02646 51.8485L-5.45042 63.7806C-2.87427 66.6903 0.917963 68.5463 5.1324 68.5463V50.5463ZM13.3851 64.4501C11.9162 61.7183 10.7821 58.7833 10.0356 55.6981L-7.45958 59.931C-6.34608 64.5332 -4.65471 68.9087 -2.46826 72.9748L13.3851 64.4501ZM31.6524 59.7124H5.45842V77.7124H31.6524V59.7124ZM45.7853 73.8453C45.7853 66.0399 39.4577 59.7124 31.6524 59.7124V77.7124C29.5166 77.7124 27.7853 75.9811 27.7853 73.8453H45.7853ZM31.6524 87.9782C39.4577 87.9782 45.7853 81.6507 45.7853 73.8453H27.7853C27.7853 71.7096 29.5166 69.9782 31.6524 69.9782V87.9782ZM12.9734 87.9782H31.6524V69.9782H12.9734V87.9782ZM45.9995 83.9583C35.5749 83.9583 26.1701 79.6589 19.4344 72.7128L6.51236 85.2436C16.4981 95.5411 30.5073 101.958 45.9995 101.958V83.9583Z" fill="#00B265" mask="url(#path-1-inside-1_2_177)"/>
</svg>
