<svg width="40" height="41" viewBox="0 0 40 41" fill="none" xmlns="http://www.w3.org/2000/svg">
<circle cx="19.9192" cy="20.5" r="19.9192" fill="#13B5EC"/>
<path fill-rule="evenodd" clip-rule="evenodd" d="M21.4134 16.6406L25.8952 14.0262V19.255L21.4134 16.6406ZM25.8952 27.8452L19.9194 31.3311L13.9436 27.8452V21.7449L19.9194 25.2308L25.8952 21.7449V27.8452ZM13.9436 14.0262L18.4255 16.6406L13.9436 19.255V14.0262ZM20.6664 17.8856L25.1482 20.5L20.6664 23.1144V17.8856ZM19.1724 23.1144L14.6906 20.5L19.1724 17.8856V23.1144ZM25.1482 12.7813L19.9194 15.7692L14.6906 12.7813L19.9194 9.66891L25.1482 12.7813ZM12.4497 12.2833V28.5922L19.9194 32.825L27.3891 28.5922V12.2833L19.9194 8.05048L12.4497 12.2833Z" fill="white"/>
</svg>
