<svg width="41" height="41" viewBox="0 0 41 41" fill="none" xmlns="http://www.w3.org/2000/svg">
<circle cx="20.9844" cy="20.5" r="20" fill="#13B5EC"/>
<path fill-rule="evenodd" clip-rule="evenodd" d="M22.4844 16.625L26.9844 14V19.25L22.4844 16.625ZM26.9844 27.875L20.9844 31.375L14.9844 27.875V21.75L20.9844 25.25L26.9844 21.75V27.875ZM14.9844 14L19.4844 16.625L14.9844 19.25V14ZM21.7344 17.875L26.2344 20.5L21.7344 23.125V17.875ZM20.2344 23.125L15.7344 20.5L20.2344 17.875V23.125ZM26.2344 12.75L20.9844 15.75L15.7344 12.75L20.9844 9.625L26.2344 12.75ZM13.4844 12.25V28.625L20.9844 32.875L28.4844 28.625V12.25L20.9844 8L13.4844 12.25Z" fill="white"/>
</svg>
