<!-- by TradingView --><svg xmlns="http://www.w3.org/2000/svg" width="56" height="56"><path fill="#F0F3FA" d="M0 0h56v56H0z"/><circle cx="12" cy="28" r="4" fill="#565656"/><circle cx="44" cy="28" r="4" fill="#565656"/><path d="M23.19 25.42a4 4 0 10-6.43-.08l1.08 1.62c.15.23.45.76.42 1.09-.05.48-.33.87-.73 1.44l-.08.1c-.2.27-.4.6-.56.86l-.13.21a4 4 0 106.45-.05l-.97-1.39c-.18-.26-.56-.8-.56-1.22 0-.42.33-.9.5-1.13l1-1.45zm16 0a4 4 0 10-6.43-.08l1.08 1.62c.15.23.45.76.42 1.09-.05.48-.33.87-.73 1.44l-.08.1c-.2.27-.4.6-.56.86l-.13.21a4 4 0 106.45-.05l-.97-1.39c-.18-.26-.56-.8-.56-1.22 0-.42.33-.9.5-1.13l1-1.45z" fill="#348ECD"/><path d="M32 19c0 .9-.3 1.75-.82 2.42l-1 1.45c-.17.23-.5.7-.5 1.13 0 .42.38.96.56 1.22l.96 1.38a3.98 3.98 0 01.14 4.6l-1.16 1.68c-.17.23-.5.71-.5 1.13 0 .43.38.96.56 1.22l.88 1.27a4 4 0 11-6.31.1l.08-.14.55-.85.09-.11c.4-.57.68-.96.72-1.44.03-.33-.26-.86-.41-1.08l-1.15-1.72h.01a3.98 3.98 0 01.06-4.6l.13-.21c.16-.26.37-.59.56-.85l.08-.12c.4-.56.68-.95.73-1.44.03-.32-.27-.85-.42-1.08l-1.09-1.62A4 4 0 1132 19z" fill="#565656"/></svg>