<svg width="78" height="78" viewBox="0 0 78 78" fill="none" xmlns="http://www.w3.org/2000/svg">
<g clip-path="url(#clip0_2_213)">
<path fill-rule="evenodd" clip-rule="evenodd" d="M17.4747 33.4277C11.5862 19.1079 19.0806 3.85129 33.6681 0.639366C51.6013 -3.37553 66.9918 12.1487 62.3077 29.5466C61.5047 32.6247 60.3003 35.4352 59.6311 35.8366C56.1515 37.9779 59.0958 39.1824 67.6609 39.1824C73.5494 39.1824 77.029 39.7177 77.029 40.6545C77.029 41.4575 75.8245 42.3943 74.3524 42.7958C71.9435 43.465 71.6758 44.6694 71.6758 57.9186C71.6758 71.9707 71.542 72.5061 68.1962 75.1827C64.8505 77.8593 62.843 77.9931 39.6905 77.9931C38.1977 77.9931 36.7756 77.995 35.4208 77.9968C19.4289 78.0181 12.8099 78.0269 9.99714 74.7593C8.01079 72.4518 7.92257 68.5103 7.77206 61.7855L7.77206 61.7854C7.75229 60.9022 7.73145 59.971 7.70509 58.9892C7.43743 44.1341 7.16977 43.3311 4.49317 42.9296C2.88721 42.662 1.41508 41.7252 1.01359 40.7884C0.612104 39.5839 3.02104 39.1824 9.9802 39.1824C15.1996 39.1824 19.4821 38.9147 19.4821 38.6471C19.4821 38.3794 18.5453 35.9705 17.4747 33.4277ZM54.0103 36.1043C62.4416 27.2715 59.765 12.0149 48.9247 6.39406C43.4377 3.58363 34.3373 3.85128 29.1179 7.0632C18.4115 13.6209 16.2702 27.9407 24.8353 36.5058C27.1104 38.7809 29.2517 39.1824 39.289 39.1824C49.9954 39.1824 51.4675 38.9147 54.0103 36.1043ZM67.6609 45.2047C67.6609 46.9445 63.646 47.2122 39.5566 47.2122C15.4672 47.2122 11.4523 46.9445 11.4523 45.2047C11.4523 43.465 15.4672 43.1973 39.5566 43.1973C63.646 43.1973 67.6609 43.465 67.6609 45.2047ZM55.6162 70.0971C55.6162 68.625 55.2147 66.6175 54.8132 65.4131C54.1441 63.6733 51.4675 63.2718 38.8875 63.2718C22.9617 63.2718 22.1587 63.5395 22.1587 70.0971C22.1587 72.5061 23.2294 72.6399 38.8875 72.6399C54.5456 72.6399 55.6162 72.5061 55.6162 70.0971Z" fill="#6BD162"/>
<path d="M41.45 17.525C41.45 17.175 41.6 16.8583 41.9 16.575C41.6333 15.9583 41.025 15.6 40.075 15.5V20.25L40.35 20.325C40.8833 20.4583 41.4083 20.6 41.925 20.75C42.4417 20.9 42.8167 21.0333 43.05 21.15C43.3 21.2833 43.55 21.4667 43.8 21.7C44.0667 21.9167 44.3083 22.1667 44.525 22.45C45.075 23.15 45.35 23.9833 45.35 24.95C45.35 25.85 45.0917 26.7 44.575 27.5C44.075 28.2833 43.4 28.8667 42.55 29.25C42.2333 29.4167 41.8583 29.5667 41.425 29.7C41.0083 29.8333 40.5583 29.95 40.075 30.05V31.8C40.075 32.4333 39.7083 32.75 38.975 32.75C38.2583 32.75 37.9 32.4333 37.9 31.8V30.075C36.1333 29.9083 34.75 29.4333 33.75 28.65C32.7667 27.85 32.275 26.8083 32.275 25.525C32.275 24.775 32.4667 24.175 32.85 23.725C33.25 23.2583 33.775 23.025 34.425 23.025C34.875 23.025 35.2583 23.175 35.575 23.475C35.9083 23.775 36.075 24.1417 36.075 24.575C36.075 24.975 35.9833 25.2917 35.8 25.525C35.6333 25.7417 35.3333 25.8917 34.9 25.975C35.05 26.525 35.375 26.9583 35.875 27.275C36.3917 27.5917 37.0667 27.7833 37.9 27.85V22.375C37.2 22.175 36.6083 22 36.125 21.85C35.6583 21.7 35.3333 21.5833 35.15 21.5C34.85 21.3667 34.5583 21.1917 34.275 20.975C34.0083 20.7583 33.7917 20.5333 33.625 20.3C33.2083 19.6833 33 18.95 33 18.1C33 17.65 33.0667 17.2167 33.2 16.8C33.3333 16.3667 33.5167 15.9667 33.75 15.6C34 15.2333 34.2917 14.9083 34.625 14.625C34.975 14.325 35.35 14.0833 35.75 13.9C36.0333 13.7667 36.3583 13.65 36.725 13.55C37.0917 13.45 37.4833 13.3583 37.9 13.275V11.65C37.9 10.9333 38.2583 10.575 38.975 10.575C39.7083 10.575 40.075 10.9333 40.075 11.65V13.275C41.5083 13.4917 42.65 13.95 43.5 14.65C44.35 15.3333 44.775 16.1583 44.775 17.125C44.775 17.6417 44.6083 18.075 44.275 18.425C43.9417 18.7583 43.525 18.925 43.025 18.925C42.575 18.925 42.2 18.7917 41.9 18.525C41.6 18.2417 41.45 17.9083 41.45 17.525ZM37.9 19.75C37.9167 19.7667 37.9417 19.775 37.975 19.775C38.0583 19.7917 38.125 19.8167 38.175 19.85C38.2417 19.8667 38.3083 19.8833 38.375 19.9L37.9 20.225V19.75ZM35.675 17.725C35.675 18.2583 35.8417 18.675 36.175 18.975C36.525 19.2583 37.1 19.5167 37.9 19.75V15.5C37.2 15.6 36.65 15.85 36.25 16.25C35.8667 16.65 35.675 17.1417 35.675 17.725ZM40.075 22.825H40.05C39.9667 22.7917 39.8167 22.7667 39.6 22.75L40.075 22.425V22.825ZM42.65 25.2C42.65 24.5167 42.45 23.9917 42.05 23.625C41.65 23.2583 40.9917 22.9917 40.075 22.825V27.825C40.425 27.7917 40.7333 27.7083 41 27.575C41.2833 27.4417 41.5583 27.2667 41.825 27.05C42.375 26.5833 42.65 25.9667 42.65 25.2Z" fill="#6BD162"/>
</g>
<defs>
<clipPath id="clip0_2_213">
<rect width="76.0578" height="78" fill="white" transform="matrix(1 0 0 -1 0.971191 78)"/>
</clipPath>
</defs>
</svg>
