<svg width="93" height="93" viewBox="0 0 93 93" fill="none" xmlns="http://www.w3.org/2000/svg">
<path d="M0.149902 46.75L0.149902 92.75H46.1499C73.2388 92.75 92.1499 90.7056 92.1499 87.6389C92.1499 84.5722 75.2832 82.5278 51.261 82.5278H10.3721L10.3721 41.6389C10.3721 17.6167 8.32768 0.75 5.26101 0.75C2.19435 0.75 0.149902 19.6611 0.149902 46.75Z" fill="#6BD162"/>
<path d="M70.6831 29.8833C63.5275 37.0388 60.4608 37.0388 53.8164 31.4166C46.6608 25.7944 43.5942 26.3055 31.8386 38.061C17.0164 53.3944 20.0831 63.6166 35.9275 49.3055C44.1053 41.6388 47.172 41.1277 53.8164 46.7499C60.4608 52.3721 64.0386 51.3499 74.2608 41.6388C87.0386 29.8833 90.6164 21.1944 82.9497 21.1944C80.9053 21.1944 75.2831 24.7721 70.6831 29.8833Z" fill="#6BD162"/>
</svg>
