<svg width="98" height="78" viewBox="0 0 98 78" fill="none" xmlns="http://www.w3.org/2000/svg">
<path d="M6.1828 70.5205C0.626637 64.7507 -0.441857 62.4 1.48143 60.4767C3.19102 58.7671 4.68691 58.7671 7.25129 60.9041C10.0294 63.2548 10.4568 61.3315 10.4568 43.1671C10.4568 20.3014 12.8075 12.8219 21.3554 8.33425C28.8349 4.48767 34.8184 4.48767 42.2979 8.33425C50.6321 12.6082 53.1965 20.0877 53.1965 39.5342C53.1965 57.9123 56.8294 65.1781 66.0184 65.1781C68.3691 65.1781 72.2157 63.2548 74.5664 60.9041C78.1992 57.2712 78.8403 53.8521 78.8403 36.1151C78.8403 17.737 78.4129 15.8137 75.6349 18.1644C73.0705 20.3014 71.5746 20.3014 69.6513 18.3781C67.728 16.4548 69.0102 14.1041 75.2075 8.12055L83.1143 0L91.0212 7.90685C97.2184 14.1041 98.5006 16.4548 96.5773 18.3781C94.654 20.3014 93.1581 20.3014 90.5938 18.1644C87.8157 15.8137 87.3883 17.737 87.3883 36.1151C87.3883 59.1945 84.8239 67.1014 75.6349 71.1616C66.2321 75.4356 59.6075 74.1534 51.9143 66.4603C44.8623 59.4082 44.6486 58.7671 44.6486 40.8164C44.6486 25.2164 44.0075 21.7973 40.3746 18.1644C35.0321 12.8219 28.6212 12.8219 23.2787 18.1644C19.6458 21.7973 19.0047 25.2164 19.0047 42.9534C19.0047 61.3315 19.4321 63.2548 22.2102 60.9041C24.7746 58.7671 26.2705 58.7671 27.9801 60.4767C29.9033 62.4 28.8349 64.7507 23.2787 70.5205C19.2184 74.5808 15.3718 78 14.7307 78C14.0897 78 10.2431 74.5808 6.1828 70.5205Z" fill="#6BD162"/>
</svg>
