<svg width="93" height="93" viewBox="0 0 93 93" fill="none" xmlns="http://www.w3.org/2000/svg">
<path fill-rule="evenodd" clip-rule="evenodd" d="M1.67662 33.9759C1.14712 34.5054 0.75 48.0076 0.75 63.8924V92.75H8.69245H16.6349L16.3701 63.2306L15.973 33.8435L9.35432 33.4464C5.64784 33.1817 2.20612 33.4464 1.67662 33.9759ZM80.1745 4.98597V9.35432L40.8594 9.61906L1.41187 10.0162V13.3255V16.6349L40.8594 17.032L80.1745 17.2968V21.6651V25.9011L86.396 19.5471L92.75 13.3255L86.396 7.10396L80.1745 0.75V4.98597ZM24.5773 63.8924C24.5773 48.0076 24.9745 34.5054 25.504 33.9759C26.0335 33.4464 29.4752 33.1817 33.1817 33.4464L39.8004 33.8435L40.1975 63.2306L40.4622 92.75H32.5198H24.5773V63.8924ZM49.3313 33.9759C48.8018 34.5054 48.4047 48.0076 48.4047 63.8924V92.75H56.3471H64.2896L64.0248 63.2306L63.6277 33.8435L57.009 33.4464C53.3025 33.1817 49.8608 33.4464 49.3313 33.9759ZM72.232 63.8924C72.232 48.0076 72.6291 34.5054 73.1586 33.9759C73.6881 33.4464 77.1299 33.1817 80.8363 33.4464L87.455 33.8435L87.8522 63.2306L88.1169 92.75H80.1745H72.232V63.8924Z" fill="#6BD162"/>
</svg>
