<svg width="116" height="93" viewBox="0 0 116 93" fill="none" xmlns="http://www.w3.org/2000/svg">
<path d="M17.2733 3.70528C7.42114 8.82331 7.16524 9.59102 5.88573 31.8544L5.37393 42.3464L9.21245 43.6259C11.3876 44.3936 14.5864 45.0334 16.1218 45.0334C18.2969 45.0334 19.1926 45.8011 19.1926 47.3365C19.1926 50.2793 16.3777 52.8384 9.3404 56.421C3.58262 59.2359 0 63.4583 0 67.0409C0 69.0881 1.53541 69.344 15.482 69.344C29.0448 69.344 31.6038 68.9601 35.9541 66.5291C38.7691 64.9937 40.9442 63.2024 40.9442 62.4347C40.9442 61.7949 38.6411 58.4682 35.8262 55.1415C30.4523 48.7439 29.3007 45.0334 32.6274 45.0334C34.1628 45.0334 34.2908 44.3936 33.5231 42.7302C29.5566 35.0532 31.092 24.4333 37.2337 16.6283C40.9442 12.0221 40.9442 11.6382 39.025 7.92765C36.8498 3.70528 31.092 0.25061 26.6137 0.378563C24.9504 0.378563 20.856 1.91397 17.2733 3.70528Z" fill="#6BD162"/>
<path d="M83.1682 1.14627C79.8414 2.42578 76.5147 5.88045 74.8514 9.71897C73.316 13.1736 73.4439 13.8134 76.0029 15.7327C77.5383 17.0122 79.9694 20.3389 81.2489 23.2817C83.4241 28.0159 83.552 29.9352 82.4005 40.4271C81.2489 50.2793 80.4812 53.0943 77.0265 57.9564L73.0601 63.8421L78.8178 66.5291C83.68 68.9601 86.7508 69.344 100.058 69.344H115.54L114.772 64.7378C113.876 59.2359 110.166 54.8856 104.536 52.5825C98.7782 50.4073 95.9632 47.5924 95.9632 44.5216C95.9632 41.8346 99.4179 33.9016 102.105 30.5749C103.512 28.7836 103.896 16.6283 102.873 11.3823C101.465 4.60094 90.0775 -1.41274 83.1682 1.14627Z" fill="#6BD162"/>
<path d="M48.7492 17.9077C40.1765 22.258 38.2572 27.6319 40.3045 41.8345C41.3281 48.232 43.2473 52.3264 47.7256 57.3165C49.261 59.2358 49.9008 61.5389 49.6449 64.3538C49.261 68.3203 48.4933 69.088 40.3045 73.3103C31.092 78.0445 26.8696 83.0346 26.8696 89.4321V92.375H57.5778L88.286 92.375V89.4321C88.286 82.9066 84.0636 77.9166 74.8511 73.1824C66.6623 69.088 65.8946 68.3203 65.5107 64.3538C65.2548 61.5389 65.8946 59.2358 67.43 57.3165C72.4201 51.8146 73.9555 47.9761 74.8511 38.8916C76.0027 26.4804 74.5952 23.2816 66.1505 18.9313C58.3455 14.9648 54.7629 14.8369 48.7492 17.9077Z" fill="#6BD162"/>
</svg>
