<svg width="66" height="62" viewBox="0 0 66 62" fill="none" xmlns="http://www.w3.org/2000/svg">
<path d="M57.6945 1.52023C56.4093 2.85131 56.088 3.7693 54.9406 9.00181C53.38 16.2998 49.9375 31.9973 48.4229 38.8363C46.9082 45.813 46.9541 47.0523 48.8819 48.98C50.626 50.7242 52.4161 50.9996 54.6193 49.898C56.2716 49.0259 57.2814 46.9146 58.0617 42.5083C58.4289 40.4887 59.0715 37.3675 59.4846 35.6234C59.8977 33.8333 60.9075 29.1975 61.7337 25.296C62.5598 21.3946 63.9368 15.1523 64.763 11.4804C66.5072 3.8611 66.3695 2.57592 63.6614 0.923546C61.4583 -0.407532 59.4387 -0.223938 57.6945 1.52023Z" fill="#00B265"/>
<path d="M27.7221 5.65116C26.8959 6.24785 26.1156 7.11994 25.9779 7.62483C25.2895 9.78209 24.7846 11.9394 24.3715 14.5097C24.142 16.0244 23.3158 19.9258 22.5355 23.2306C21.7552 26.4894 20.6077 31.676 20.011 34.7054C19.4144 37.7347 18.3587 42.5083 17.7161 45.354C16.6145 50.1275 16.6145 50.6324 17.2112 52.1471C18.5423 55.2223 23.1781 56.0026 25.519 53.4782C26.5746 52.3307 27.4008 49.4849 28.7319 42.2788C29.0991 40.3969 30.1089 35.5316 30.981 31.4924C31.8989 27.4533 32.8169 23.0929 33.0923 21.8536C33.3677 20.5684 34.0103 17.6768 34.5152 15.4277C35.4791 11.1591 35.6627 9.0018 35.2037 7.57893C34.7906 6.33965 32.1284 4.64138 30.522 4.64138C29.7876 4.64138 28.5024 5.10036 27.7221 5.65116Z" fill="#00B265"/>
<path d="M11.6113 11.297C10.5097 12.215 10.0507 13.1788 9.45401 15.7951C9.08682 17.5852 8.44423 20.4309 8.07704 22.0833C7.11315 26.1683 5.27718 34.7974 3.67071 42.692C2.93632 46.3181 2.01834 50.4949 1.65114 51.9637C0.365963 56.7831 0.916754 58.9863 3.71661 60.4092C5.73617 61.4648 7.06725 61.2353 8.94912 59.583L10.6474 58.1142L13.126 46.4099C15.9717 32.9155 17.67 25.2044 18.9093 20.0637C19.9649 15.6574 20.0108 14.1886 19.0929 12.3985C17.7618 9.91999 13.9062 9.3233 11.6113 11.297Z" fill="#00B265"/>
<path d="M42.4553 10.4706C41.9045 10.5624 41.0324 11.1591 40.4816 11.7099C39.4259 12.8574 39.0128 14.4179 34.6983 34.4759C33.5049 39.892 32.0362 46.6392 31.4395 49.4391C30.8428 52.2389 30.3379 55.2683 30.3379 56.1403C30.3379 59.5369 34.1934 61.9696 37.131 60.4549C39.2882 59.3533 39.8849 58.114 41.1242 52.1012C42.4553 45.813 44.1077 38.3314 47.1829 24.4699C49.2943 14.9228 49.2943 14.6933 48.5599 13.0869C48.055 12.0312 47.2288 11.2509 46.1731 10.7919C44.5667 10.1493 44.2454 10.1034 42.4553 10.4706Z" fill="#B92828"/>
</svg>
