<svg width="220" height="62" viewBox="0 0 220 62" fill="none" xmlns="http://www.w3.org/2000/svg">
<path d="M57.6945 1.52023C56.4093 2.85131 56.088 3.7693 54.9406 9.00181C53.38 16.2998 49.9375 31.9973 48.4229 38.8363C46.9082 45.813 46.9541 47.0523 48.8819 48.98C50.626 50.7242 52.4161 50.9996 54.6193 49.898C56.2716 49.0259 57.2814 46.9146 58.0617 42.5083C58.4289 40.4887 59.0715 37.3675 59.4846 35.6234C59.8977 33.8333 60.9075 29.1975 61.7337 25.296C62.5598 21.3946 63.9368 15.1523 64.763 11.4804C66.5072 3.8611 66.3695 2.57592 63.6614 0.923546C61.4583 -0.407532 59.4387 -0.223938 57.6945 1.52023Z" fill="#00B265"/>
<path d="M27.7221 5.65116C26.8959 6.24785 26.1156 7.11994 25.9779 7.62483C25.2895 9.78209 24.7846 11.9394 24.3715 14.5097C24.142 16.0244 23.3158 19.9258 22.5355 23.2306C21.7552 26.4894 20.6077 31.676 20.011 34.7054C19.4144 37.7347 18.3587 42.5082 17.7161 45.354C16.6145 50.1275 16.6145 50.6324 17.2112 52.1471C18.5423 55.2223 23.1781 56.0026 25.519 53.4782C26.5746 52.3307 27.4008 49.4849 28.7319 42.2788C29.0991 40.3969 30.1089 35.5316 30.981 31.4924C31.8989 27.4533 32.8169 23.0929 33.0923 21.8536C33.3677 20.5684 34.0103 17.6768 34.5152 15.4277C35.4791 11.1591 35.6627 9.0018 35.2037 7.57893C34.7906 6.33965 32.1284 4.64138 30.522 4.64138C29.7876 4.64138 28.5024 5.10037 27.7221 5.65116Z" fill="#00B265"/>
<path d="M11.6113 11.297C10.5097 12.215 10.0507 13.1788 9.45401 15.7951C9.08682 17.5852 8.44423 20.4309 8.07704 22.0833C7.11315 26.1683 5.27718 34.7974 3.67071 42.692C2.93632 46.3181 2.01834 50.4949 1.65114 51.9637C0.365963 56.7831 0.916754 58.9863 3.71661 60.4092C5.73617 61.4648 7.06725 61.2353 8.94912 59.583L10.6474 58.1142L13.126 46.4099C15.9717 32.9155 17.67 25.2044 18.9093 20.0637C19.9649 15.6574 20.0108 14.1886 19.0929 12.3985C17.7618 9.91999 13.9062 9.3233 11.6113 11.297Z" fill="#00B265"/>
<path d="M42.4553 10.4706C41.9045 10.5624 41.0324 11.1591 40.4816 11.7099C39.4259 12.8574 39.0128 14.4179 34.6983 34.4759C33.5049 39.892 32.0362 46.6392 31.4395 49.4391C30.8428 52.2389 30.3379 55.2683 30.3379 56.1403C30.3379 59.5369 34.1934 61.9696 37.131 60.4549C39.2882 59.3533 39.8849 58.114 41.1242 52.1012C42.4553 45.813 44.1077 38.3314 47.1829 24.4699C49.2943 14.9228 49.2943 14.6933 48.5599 13.0869C48.055 12.0312 47.2288 11.2509 46.1731 10.7919C44.5667 10.1493 44.2454 10.1034 42.4553 10.4706Z" fill="#B92828"/>
<path d="M89.1809 11.5725C86.6564 12.3527 83.8566 15.5657 82.755 18.9163C80.4141 26.0307 76.6963 44.0691 76.6963 48.246C76.6963 53.708 79.542 56.1865 85.8761 56.2324C88.8596 56.2324 89.6858 56.0029 91.843 54.8554C95.1937 53.1113 96.8461 50.0819 98.4525 43.0593L98.7279 41.8201H94.597H90.4661L90.1907 43.0593C89.0432 48.2001 88.2629 49.6229 86.5646 49.6229C84.4074 49.6229 84.2697 48.2919 85.7843 41.407C86.5646 37.9645 87.9416 31.6763 88.8137 27.4536C89.7317 23.185 90.6956 19.3294 90.971 18.8245C91.3381 18.1361 91.843 17.9525 92.8987 18.0443L94.3675 18.1819L94.3216 21.4867L94.2298 24.8373H98.0853C102.675 24.8373 102.629 24.9291 102.629 19.4671C102.629 15.2903 101.987 13.8674 99.1869 12.2609C97.4427 11.2053 91.6135 10.8381 89.1809 11.5725Z" fill="white"/>
<path fill-rule="evenodd" clip-rule="evenodd" d="M123.468 14.6018C124.707 13.2248 126.589 12.0774 128.562 11.4807C129.205 11.2971 130.766 11.1135 132.005 11.1135C138.568 11.0217 142.103 14.2805 142.011 20.4769C141.919 25.0209 136.778 48.1542 135.264 50.6786C132.923 54.7177 130.123 56.1865 124.89 56.1865C116.445 56.1865 113.737 51.7802 115.894 41.4529C116.136 40.3362 116.615 38.0091 117.137 35.4761C117.409 34.1568 117.692 32.7817 117.96 31.4927C120.714 18.2738 121.127 17.0804 123.468 14.6018ZM131.087 34.3844C133.52 23.1391 133.978 19.6507 133.152 18.6409C132.372 17.723 130.72 17.7689 129.802 18.7786C128.7 19.972 123.513 43.3806 123.513 46.9608C123.513 48.8885 124.707 49.8983 126.313 49.3934C127.231 49.0721 129.021 46.0887 129.021 44.7576C129.021 44.2986 129.939 39.6628 131.087 34.3844Z" fill="white"/>
<path d="M167.026 11.8479L163.951 12.0315L163.446 13.7756C163.216 14.7395 162.069 21.0736 160.921 27.8667C159.774 34.6139 158.764 40.2136 158.672 40.3054C158.581 40.3972 158.626 34.0631 158.764 26.2143L158.994 11.9856H154.128H149.309L148.988 13.4543C148.666 15.1067 147.014 22.9096 144.214 35.8532C143.204 40.5349 141.965 46.5018 141.414 49.1639C140.909 51.8261 140.359 54.3506 140.221 54.7637C139.991 55.498 140.359 55.5898 143.893 55.5898C147.243 55.5898 147.84 55.4521 147.84 54.8555C147.84 54.4424 148.345 51.7802 148.942 48.9804C149.584 46.1805 150.594 40.3513 151.283 36.0827C151.925 31.7681 152.614 27.6372 152.843 26.9028C153.027 26.1225 153.164 32.2271 153.164 40.4431L153.119 55.3603L157.708 55.498L162.298 55.6357L163.538 49.7606C164.226 46.5477 165.236 41.9119 165.741 39.5251C171.754 11.5266 171.662 12.0774 171.341 11.7561C171.203 11.6184 170.882 11.5725 170.606 11.6184C170.331 11.6643 168.724 11.7561 167.026 11.8479Z" fill="white"/>
<path d="M214.853 11.9856L210.998 12.2151L209.988 16.805C209.116 20.9359 205.765 36.4958 204.021 44.8035C203.654 46.5477 202.965 49.7147 202.506 51.7802L201.68 55.5898H205.719C209.162 55.5898 209.758 55.4521 209.988 54.7637C210.355 53.3867 212.88 41.9578 215.083 31.4927C216.23 25.9389 217.699 19.3294 218.296 16.805C218.892 14.2805 219.214 12.1233 219.076 11.9856C218.892 11.8479 217.011 11.8479 214.853 11.9856Z" fill="white"/>
<path d="M108.367 14.6018C107.541 18.5492 104.098 34.7516 101.711 45.6297C100.564 50.8622 99.646 55.2226 99.646 55.3603C99.646 55.498 101.482 55.5898 103.685 55.5898H107.724L108.505 52.2851C108.918 50.4491 110.019 45.4002 110.937 41.1316C111.809 36.8171 113.462 29.1978 114.563 24.1489C115.665 19.0999 116.675 14.2805 116.858 13.4543L117.18 11.9856H113.049H108.872L108.367 14.6018Z" fill="white"/>
<path d="M188.507 15.5198C188.094 17.4935 187.176 22.0375 186.396 25.6176C185.615 29.2437 184.284 35.6237 183.412 39.8464C182.54 44.115 181.439 49.3475 180.934 51.5507L180.062 55.5898H184.147H188.186L188.599 53.8457C188.966 52.4228 191.445 40.8562 192.179 37.3219C192.363 36.3581 192.592 36.3122 196.907 36.3122H201.496L202.001 33.65C202.277 32.2271 202.644 30.6666 202.736 30.2076C202.965 29.5191 202.552 29.4273 198.605 29.4273C195.392 29.4273 194.198 29.2896 194.198 28.8306C194.198 28.5552 194.657 26.1684 195.208 23.5522L196.172 18.8704H200.9H205.627L206.086 17.1263C206.316 16.2083 206.683 14.6477 206.867 13.6838L207.142 11.9856H198.192H189.241L188.507 15.5198Z" fill="white"/>
<path d="M169.183 46.0429C169 46.5937 167.118 55.131 167.118 55.4523C167.118 55.5441 168.908 55.5441 171.111 55.4982L175.104 55.3605L175.839 51.918C176.252 50.0362 176.711 47.7871 176.894 46.9609L177.216 45.4921H173.268C170.56 45.4921 169.321 45.6757 169.183 46.0429Z" fill="white"/>
</svg>
