<svg width="69" height="68" viewBox="0 0 69 68" fill="none" xmlns="http://www.w3.org/2000/svg">
<path d="M8.75387 1.32504C9.31276 4.25254 12.227 7.16675 15.1412 7.72563C15.6069 7.80547 15.9795 7.91193 15.9795 7.95185C15.9795 7.99177 15.6069 8.09822 15.1545 8.17807C14.6887 8.27121 13.8105 8.59058 13.1851 8.89664C11.0293 9.96118 9.17969 12.3431 8.75387 14.5654C8.67403 15.0311 8.56758 15.4037 8.52766 15.4037C8.48773 15.4037 8.38128 15.0311 8.30144 14.5787C7.72924 11.6112 4.86827 8.75026 1.90084 8.17807C1.44841 8.09822 1.07582 7.99177 1.07582 7.93854C1.07582 7.89862 1.34196 7.81878 1.67463 7.77886C3.12507 7.57926 5.16102 6.40825 6.34533 5.10418C7.22358 4.13278 8.07522 2.48273 8.30144 1.32504C8.38128 0.872604 8.48773 0.500012 8.52766 0.500012C8.56758 0.500012 8.67403 0.872604 8.75387 1.32504Z" fill="black"/>
<path d="M38.4687 1.1387C38.4687 1.7242 38.9344 3.42748 39.3869 4.47872C40.6111 7.353 43.1793 9.93453 46.0403 11.1455C47.1181 11.6112 48.8214 12.0769 49.4069 12.0769C50.0856 12.0769 49.7928 12.3031 49.0077 12.3963C47.8766 12.5294 45.8008 13.2879 44.5632 14.0197C42.4075 15.3238 40.3583 17.6392 39.4002 19.9147C38.9344 20.9925 38.4687 22.6958 38.4687 23.2813C38.4687 23.9599 38.2425 23.6672 38.1493 22.8821C38.0162 21.751 37.2578 19.6751 36.5259 18.4376C35.2218 16.2819 32.9064 14.2326 30.6309 13.2745C29.5531 12.8088 27.8498 12.3431 27.2643 12.3431C27.0647 12.3431 26.8917 12.2765 26.8917 12.21C26.8917 12.1302 27.0514 12.0769 27.251 12.0769C27.8498 12.0769 29.593 11.5846 30.6442 11.1455C33.4919 9.93453 36.0601 7.353 37.2844 4.47872C37.7368 3.42748 38.2025 1.7242 38.2025 1.1387C38.2025 0.939096 38.2558 0.766106 38.3356 0.766106C38.4021 0.766106 38.4687 0.939096 38.4687 1.1387Z" fill="black"/>
<path fill-rule="evenodd" clip-rule="evenodd" d="M68.1426 58.9836L44.7491 35.5902C31.8947 22.7357 21.3424 12.21 21.3025 12.21C21.2625 12.21 19.333 14.1129 17.0043 16.4416L12.7861 20.6599L36.2061 44.0799L59.6262 67.5L63.8844 63.2418L68.1426 58.9836ZM20.4375 21.924L21.4355 20.926C21.9811 20.3804 22.4868 19.928 22.5666 19.928C22.7396 19.928 28.4882 25.6766 28.4882 25.8496C28.4882 25.9294 28.0357 26.4351 27.4901 26.9806L26.4921 27.9786L23.4715 24.9447L20.4375 21.924Z" fill="black"/>
<path d="M6.5851 26.4218C6.73148 27.34 7.52989 28.7505 8.38153 29.5489C9.20656 30.3473 10.4973 31.0526 11.349 31.1857C12.001 31.2921 11.9877 31.4518 11.349 31.5582C10.4308 31.7046 9.02026 32.503 8.22185 33.3547C7.42344 34.1797 6.71817 35.4705 6.5851 36.3221C6.53188 36.6015 6.45204 36.8278 6.39881 36.8278C6.34558 36.8278 6.26574 36.6015 6.21251 36.3221C6.07944 35.4705 5.37418 34.1797 4.57577 33.3547C3.77736 32.503 2.36683 31.7046 1.44866 31.5582C0.809931 31.4518 0.796624 31.2921 1.43535 31.1857C2.28699 31.0526 3.51122 30.3872 4.37617 29.5888C5.25442 28.7638 6.06614 27.3799 6.21251 26.4218C6.26574 26.1424 6.34558 25.9161 6.39881 25.9161C6.45204 25.9161 6.53188 26.1424 6.5851 26.4218Z" fill="black"/>
</svg>
