<svg width="886" height="83" viewBox="0 0 886 83" fill="none" xmlns="http://www.w3.org/2000/svg">
<path d="M474.925 46.0492L474.921 43.5492L472.795 43.5527L472.457 45.6511L474.925 46.0492ZM475.504 46.0482L475.508 48.5482L475.504 46.0482ZM747.697 45.5964L747.693 43.0964L747.697 45.5964ZM748.005 45.5959L750.478 45.2282L750.16 43.0923L748.001 43.0959L748.005 45.5959ZM821.918 46.0921L821.897 43.5922L819.788 43.6102L819.45 45.6912L821.918 46.0921ZM880.021 45.5963L880.043 48.0962H880.043L880.021 45.5963ZM882.521 45.575L882.543 48.0749L885.042 48.0535L885.021 45.5536L882.521 45.575ZM882.479 40.5752L884.979 40.5538L884.957 38.0539L882.457 38.0752L882.479 40.5752ZM879.979 40.5965L880 43.0964H880L879.979 40.5965ZM822.39 41.0879L819.891 41.0199L819.82 43.6099L822.411 43.5878L822.39 41.0879ZM747.6 40.5965L747.604 43.0965L750.136 43.0923L750.1 40.5606L747.6 40.5965ZM475.496 41.0482L475.492 38.5482H475.492L475.496 41.0482ZM475.391 41.0484L472.891 40.9827L472.824 43.5527L475.395 43.5484L475.391 41.0484ZM400.6 40.5482L400.603 43.0482L403.132 43.0443L403.099 40.5156L400.6 40.5482ZM400.592 40.5482L400.588 38.0482H400.588L400.592 40.5482ZM128.4 41L128.404 43.5H128.404L128.4 41ZM128.349 41.0001L125.852 41.1348L125.98 43.504L128.353 43.5001L128.349 41.0001ZM53.6514 41V43.5H56.0201L56.1478 41.1347L53.6514 41ZM3 41V38.5H0.5V41H3ZM3 46H0.5V48.5H3V46ZM53.711 46L56.2034 45.8054L56.0235 43.5H53.711V46ZM128.289 46.0002L128.285 43.5002L125.976 43.5041L125.797 45.8056L128.289 46.0002ZM128.408 46L128.404 43.5H128.404L128.408 46ZM400.6 45.5482L400.605 48.0482L400.6 45.5482ZM400.998 45.5475L403.471 45.1831L403.156 43.044L400.994 43.0475L400.998 45.5475ZM468.904 40.0482C468.904 57.1159 455.068 70.9519 438 70.9519V75.9519C457.829 75.9519 473.904 59.8773 473.904 40.0482H468.904ZM438 9.14447C455.068 9.14447 468.904 22.9805 468.904 40.0482H473.904C473.904 20.2191 457.829 4.14447 438 4.14447V9.14447ZM407.096 40.0482C407.096 22.9805 420.932 9.14447 438 9.14447V4.14447C418.171 4.14447 402.096 20.2191 402.096 40.0482H407.096ZM438 70.9519C420.932 70.9519 407.096 57.1159 407.096 40.0482H402.096C402.096 59.8773 418.171 75.9519 438 75.9519V70.9519ZM472.457 45.6511C469.778 62.2638 455.368 74.9519 438 74.9519V79.9519C457.861 79.9519 474.329 65.4439 477.393 46.4472L472.457 45.6511ZM475.5 43.5482L474.921 43.5492L474.929 48.5492L475.508 48.5482L475.5 43.5482ZM747.693 43.0964L475.5 43.5482L475.508 48.5482L747.701 48.0964L747.693 43.0964ZM748.001 43.0959L747.693 43.0964L747.701 48.0964L748.009 48.0959L748.001 43.0959ZM745.532 45.9635C748.392 65.1973 764.971 79.9519 785 79.9519V74.9519C767.484 74.9519 752.978 62.0477 750.478 45.2282L745.532 45.9635ZM785 79.9519C804.845 79.9519 821.303 65.4672 824.386 46.493L819.45 45.6912C816.755 62.2842 802.354 74.9519 785 74.9519V79.9519ZM821.939 48.592L880.043 48.0962L880 43.0964L821.897 43.5922L821.939 48.592ZM880.043 48.0962L882.543 48.0749L882.5 43.0751L880 43.0964L880.043 48.0962ZM885.021 45.5536L884.979 40.5538L879.979 40.5965L880.021 45.5963L885.021 45.5536ZM882.457 38.0752L879.957 38.0966L880 43.0964L882.5 43.0751L882.457 38.0752ZM879.957 38.0966L822.368 38.588L822.411 43.5878L880 43.0964L879.957 38.0966ZM824.889 41.1559C824.899 40.788 824.904 40.4187 824.904 40.0482H819.904C819.904 40.3731 819.899 40.697 819.891 41.0199L824.889 41.1559ZM824.904 40.0482C824.904 18.01 807.038 0.14447 785 0.14447V5.14447C804.277 5.14447 819.904 20.7714 819.904 40.0482H824.904ZM785 0.14447C762.962 0.14447 745.096 18.01 745.096 40.0482H750.096C750.096 20.7714 765.723 5.14447 785 5.14447V0.14447ZM745.096 40.0482C745.096 40.2435 745.098 40.4383 745.1 40.6325L750.1 40.5606C750.098 40.3899 750.096 40.2191 750.096 40.0482H745.096ZM475.5 43.5482L747.604 43.0965L747.596 38.0965L475.492 38.5482L475.5 43.5482ZM475.395 43.5484L475.5 43.5482L475.492 38.5482L475.386 38.5484L475.395 43.5484ZM472.904 40.0482C472.904 40.3607 472.9 40.6723 472.891 40.9827L477.89 41.114C477.899 40.7598 477.904 40.4045 477.904 40.0482H472.904ZM438 5.14447C457.277 5.14447 472.904 20.7714 472.904 40.0482H477.904C477.904 18.01 460.038 0.14447 438 0.14447V5.14447ZM403.096 40.0482C403.096 20.7714 418.723 5.14447 438 5.14447V0.14447C415.962 0.14447 398.096 18.01 398.096 40.0482H403.096ZM403.099 40.5156C403.097 40.36 403.096 40.2042 403.096 40.0482H398.096C398.096 40.2261 398.097 40.4036 398.1 40.5807L403.099 40.5156ZM400.596 43.0482L400.603 43.0482L400.596 38.0482L400.588 38.0482L400.596 43.0482ZM128.404 43.5L400.596 43.0482L400.588 38.0482L128.395 38.5L128.404 43.5ZM128.353 43.5001L128.404 43.5L128.395 38.5L128.344 38.5001L128.353 43.5001ZM91 8.14447C109.635 8.14447 124.86 22.749 125.852 41.1348L130.845 40.8654C129.71 19.8411 112.306 3.14447 91 3.14447V8.14447ZM56.1478 41.1347C57.14 22.749 72.3653 8.14447 91 8.14447V3.14447C69.6941 3.14447 52.2896 19.8411 51.155 40.8653L56.1478 41.1347ZM53.5 43.5H53.6514V38.5H53.5V43.5ZM5.5 43.5H53.5V38.5H5.5V43.5ZM3 43.5H5.5V38.5H3V43.5ZM5.5 46V41H0.5V46H5.5ZM5.5 43.5H3V48.5H5.5V43.5ZM53.5 43.5H5.5V48.5H53.5V43.5ZM53.711 43.5H53.5V48.5H53.711V43.5ZM91 77.9519C72.6514 77.9519 57.6076 63.7921 56.2034 45.8054L51.2186 46.1946C52.8244 66.7633 70.0205 82.9519 91 82.9519V77.9519ZM125.797 45.8056C124.392 63.7922 109.349 77.9519 91 77.9519V82.9519C111.979 82.9519 129.175 66.7634 130.781 46.1948L125.797 45.8056ZM128.404 43.5L128.285 43.5002L128.293 48.5002L128.412 48.5L128.404 43.5ZM400.596 43.0482L128.404 43.5L128.412 48.5L400.605 48.0482L400.596 43.0482ZM400.994 43.0475L400.596 43.0482L400.605 48.0482L401.002 48.0475L400.994 43.0475ZM438 74.9519C420.469 74.9519 405.953 62.0247 403.471 45.1831L398.524 45.912C401.362 65.171 417.953 79.9519 438 79.9519V74.9519ZM91 78.9519C110.829 78.9519 126.904 62.8773 126.904 43.0482H121.904C121.904 60.1159 108.068 73.9519 91 73.9519V78.9519ZM55.0963 43.0482C55.0963 62.8773 71.1709 78.9519 91 78.9519V73.9519C73.9323 73.9519 60.0963 60.1159 60.0963 43.0482H55.0963ZM91 7.14447C71.1709 7.14447 55.0963 23.2191 55.0963 43.0482H60.0963C60.0963 25.9805 73.9323 12.1445 91 12.1445V7.14447ZM126.904 43.0482C126.904 23.2191 110.829 7.14447 91 7.14447V12.1445C108.068 12.1445 121.904 25.9805 121.904 43.0482H126.904ZM785 75.9519C804.829 75.9519 820.904 59.8773 820.904 40.0482H815.904C815.904 57.1159 802.068 70.9519 785 70.9519V75.9519ZM749.096 40.0482C749.096 59.8773 765.171 75.9519 785 75.9519V70.9519C767.932 70.9519 754.096 57.1159 754.096 40.0482H749.096ZM785 4.14447C765.171 4.14447 749.096 20.2191 749.096 40.0482H754.096C754.096 22.9805 767.932 9.14447 785 9.14447V4.14447ZM820.904 40.0482C820.904 20.2191 804.829 4.14447 785 4.14447V9.14447C802.068 9.14447 815.904 22.9805 815.904 40.0482H820.904Z" fill="#DED03D" fill-opacity="0.838983"/>
<g clip-path="url(#clip0_14_2)">
<path d="M89.49 45.6182L89.4 36.9182C89.38 35.8982 89.27 35.2182 89.07 34.8782C88.89 34.5382 88.52 34.3682 87.96 34.3682C87.76 34.3682 87.47 34.3982 87.09 34.4582C86.71 34.4982 86.42 34.5182 86.22 34.5182C85.44 34.5182 85.05 34.1682 85.05 33.4682C85.05 32.7682 85.42 32.4182 86.16 32.4182C86.4 32.4182 86.77 32.4482 87.27 32.5082C87.79 32.5482 88.19 32.5682 88.47 32.5682C89.11 32.5682 89.64 32.5482 90.06 32.5082C90.68 32.4482 91.06 32.4182 91.2 32.4182C91.64 32.4182 91.91 32.5482 92.01 32.8082C92.09 32.9882 92.13 33.2982 92.13 33.7382C92.13 33.7982 92.12 34.0382 92.1 34.4582C92 36.5982 91.95 38.5382 91.95 40.2782V43.6682C91.95 44.2882 91.96 45.1182 91.98 46.1582C92.02 47.4182 92.04 48.2482 92.04 48.6482C92.06 50.0282 92.52 50.7182 93.42 50.7182C93.64 50.7182 93.97 50.6982 94.41 50.6582C94.85 50.5982 95.18 50.5682 95.4 50.5682C96.36 50.5682 96.84 50.9182 96.84 51.6182C96.84 52.3182 96.4 52.6682 95.52 52.6682C95.18 52.6682 94.86 52.6482 94.56 52.6082C92.88 52.3882 91.6 52.2782 90.72 52.2782C89.84 52.2782 88.76 52.3682 87.48 52.5482C86.76 52.6482 86.25 52.6982 85.95 52.6982C85.09 52.6982 84.66 52.3382 84.66 51.6182C84.66 50.9182 85.15 50.5682 86.13 50.5682C86.43 50.5682 86.74 50.5982 87.06 50.6582C87.54 50.6982 87.84 50.7182 87.96 50.7182C88.66 50.7182 89.09 50.4482 89.25 49.9082C89.41 49.3482 89.49 47.9182 89.49 45.6182Z" fill="#2FE0C3"/>
<path d="M430.005 47.0882C429.565 47.6082 429.295 48.2382 429.195 48.9782C430.095 48.0182 431.185 47.5382 432.465 47.5382C433.645 47.5382 434.885 48.0582 436.185 49.0982C437.625 50.2382 438.735 50.8082 439.515 50.8082C440.075 50.8082 440.525 50.6282 440.865 50.2682C441.225 49.8882 441.405 49.4082 441.405 48.8282C441.405 48.6282 441.365 48.4082 441.285 48.1682C440.965 48.4882 440.605 48.6482 440.205 48.6482C439.345 48.6482 438.915 48.2282 438.915 47.3882C438.915 46.9282 439.085 46.5482 439.425 46.2482C439.765 45.9482 440.215 45.7982 440.775 45.7982C441.515 45.7982 442.105 46.0682 442.545 46.6082C443.005 47.1282 443.235 47.8282 443.235 48.7082C443.235 49.9482 442.845 51.0082 442.065 51.8882C441.285 52.7682 440.335 53.2082 439.215 53.2082C438.155 53.2082 436.875 52.6382 435.375 51.4982C433.895 50.3582 432.595 49.7882 431.475 49.7882C430.355 49.7882 429.655 50.2082 429.375 51.0482C429.575 51.0082 429.695 50.9882 429.735 50.9882C430.315 50.9882 430.605 51.2782 430.605 51.8582C430.605 52.7582 430.105 53.2082 429.105 53.2082C428.445 53.2082 427.905 52.9282 427.485 52.3682C427.085 51.7882 426.885 51.0182 426.885 50.0582C426.885 46.5582 429.295 44.0382 434.115 42.4982L436.275 41.8082C438.695 41.0282 439.905 39.7182 439.905 37.8782C439.905 36.6382 439.465 35.6582 438.585 34.9382C437.725 34.2182 436.535 33.8582 435.015 33.8582C433.675 33.8582 432.565 34.1282 431.685 34.6682C430.805 35.2082 430.285 35.9482 430.125 36.8882C431.205 36.9682 431.745 37.4382 431.745 38.2982C431.745 38.8182 431.555 39.2682 431.175 39.6482C430.795 40.0082 430.325 40.1882 429.765 40.1882C429.085 40.1882 428.535 39.9582 428.115 39.4982C427.715 39.0182 427.515 38.3982 427.515 37.6382C427.515 35.9982 428.255 34.6282 429.735 33.5282C431.215 32.4282 433.045 31.8782 435.225 31.8782C437.345 31.8782 439.075 32.4382 440.415 33.5582C441.775 34.6582 442.455 36.0882 442.455 37.8482C442.455 39.0482 442.125 40.1082 441.465 41.0282C440.825 41.9482 439.925 42.6382 438.765 43.0982C438.405 43.2382 437.205 43.6582 435.165 44.3582C433.705 44.8582 432.535 45.3382 431.655 45.7982C431.015 46.1382 430.465 46.5682 430.005 47.0882Z" fill="#2FE0C3"/>
<path d="M784.5 40.8782L790.74 34.7582H783.78C783 34.7582 782.48 34.8082 782.22 34.9082C781.72 35.0682 781.47 35.4582 781.47 36.0782C781.47 36.2782 781.49 36.5682 781.53 36.9482C781.57 37.3282 781.59 37.6182 781.59 37.8182C781.59 38.8582 781.24 39.3782 780.54 39.3782C779.86 39.3782 779.52 38.9482 779.52 38.0882C779.52 37.8482 779.53 37.4882 779.55 37.0082C779.59 36.5082 779.61 36.1382 779.61 35.8982C779.61 35.3382 779.6 34.9182 779.58 34.6382C779.56 34.3582 779.55 34.0482 779.55 33.7082C779.55 33.1682 779.65 32.8382 779.85 32.7182C780.05 32.5782 780.55 32.5082 781.35 32.5082H788.73C789.13 32.5082 789.81 32.4882 790.77 32.4482C791.25 32.4282 791.81 32.4182 792.45 32.4182C793.63 32.4182 794.22 32.7782 794.22 33.4982C794.22 33.9582 793.97 34.4282 793.47 34.9082L787.95 40.2182C788.07 40.2182 788.23 40.2082 788.43 40.1882C788.61 40.1882 788.74 40.1882 788.82 40.1882C790.52 40.1882 791.91 40.7382 792.99 41.8382C794.09 42.9182 794.64 44.3082 794.64 46.0082C794.64 48.1282 793.86 49.8582 792.3 51.1982C790.76 52.5382 788.77 53.2082 786.33 53.2082C784.09 53.2082 782.22 52.6682 780.72 51.5882C779.22 50.4882 778.47 49.1182 778.47 47.4782C778.47 46.5382 778.74 45.7482 779.28 45.1082C779.82 44.4482 780.49 44.1182 781.29 44.1182C781.81 44.1182 782.23 44.2782 782.55 44.5982C782.89 44.8982 783.06 45.2982 783.06 45.7982C783.06 46.7982 782.47 47.2982 781.29 47.2982H780.96V47.5082C780.96 48.4882 781.5 49.3382 782.58 50.0582C783.68 50.7782 784.97 51.1382 786.45 51.1382C788.11 51.1382 789.47 50.6682 790.53 49.7282C791.59 48.7682 792.12 47.5482 792.12 46.0682C792.12 43.4682 790.64 42.1682 787.68 42.1682C786.9 42.1682 786.09 42.2582 785.25 42.4382C785.07 42.4782 784.9 42.4982 784.74 42.4982C784.26 42.4982 784.02 42.2382 784.02 41.7182C784.02 41.4782 784.18 41.1982 784.5 40.8782Z" fill="#2FE0C3"/>
</g>
<defs>
<clipPath id="clip0_14_2">
<rect width="716" height="35" fill="white" transform="translate(81 25.5482)"/>
</clipPath>
</defs>
</svg>
