<svg width="886" height="141" viewBox="0 0 886 141" fill="none" xmlns="http://www.w3.org/2000/svg">
<path d="M50.9538 111.782C52.9538 111.782 54.7638 112.532 56.3838 114.032C56.3438 113.752 56.3238 113.592 56.3238 113.552C56.2838 113.152 56.2638 112.932 56.2638 112.892C56.2638 112.232 56.5938 111.902 57.2538 111.902C57.9738 111.902 58.3338 112.332 58.3338 113.192C58.3338 113.472 58.3238 113.682 58.3038 113.822L58.0938 115.262C58.0338 115.682 58.0038 116.132 58.0038 116.612C58.0038 116.992 58.0438 117.802 58.1238 119.042C58.1238 119.042 58.1238 119.132 58.1238 119.312C58.1238 120.212 57.7538 120.662 57.0138 120.662C56.3138 120.662 55.9638 120.172 55.9638 119.192V118.292C55.9638 116.912 55.5038 115.822 54.5838 115.022C53.6838 114.222 52.4638 113.822 50.9238 113.822C48.9838 113.822 47.4638 114.572 46.3638 116.072C45.2638 117.572 44.7138 119.632 44.7138 122.252C44.7138 125.032 45.2738 127.202 46.3938 128.762C47.5338 130.322 49.1038 131.102 51.1038 131.102C52.6438 131.102 53.8338 130.652 54.6738 129.752C55.5138 128.852 55.9338 127.572 55.9338 125.912C55.9338 125.232 55.8138 124.762 55.5738 124.502C55.3538 124.222 54.9538 124.082 54.3738 124.082C54.2138 124.082 53.9838 124.092 53.6838 124.112C53.3838 124.132 53.1538 124.142 52.9938 124.142C52.0338 124.142 51.5538 123.802 51.5538 123.122C51.5538 122.422 51.9638 122.072 52.7838 122.072C53.0438 122.072 53.3338 122.092 53.6538 122.132C54.9138 122.292 55.9238 122.372 56.6838 122.372C57.6638 122.372 58.7038 122.282 59.8038 122.102C60.0438 122.062 60.3138 122.042 60.6138 122.042C61.4138 122.042 61.8138 122.372 61.8138 123.032C61.8138 123.312 61.7038 123.552 61.4838 123.752C61.2838 123.952 61.0438 124.052 60.7638 124.052C60.5238 124.052 60.3438 124.042 60.2238 124.022C60.1838 124.022 60.1138 124.012 60.0138 123.992C59.9138 123.992 59.8338 123.992 59.7738 123.992C58.8938 123.992 58.4538 124.972 58.4538 126.932V129.332C58.4538 129.852 58.4738 130.322 58.5138 130.742C58.5538 131.162 58.5738 131.492 58.5738 131.732C58.5738 132.552 58.2138 132.962 57.4938 132.962C56.7938 132.962 56.4438 132.612 56.4438 131.912C56.4438 131.912 56.4638 131.672 56.5038 131.192C56.5238 131.012 56.5438 130.702 56.5638 130.262C56.1038 130.882 55.7438 131.312 55.4838 131.552C54.3238 132.592 52.7138 133.112 50.6538 133.112C48.0738 133.112 45.9938 132.152 44.4138 130.232C42.8338 128.312 42.0438 125.802 42.0438 122.702C42.0438 119.382 42.8438 116.732 44.4438 114.752C46.0638 112.772 48.2338 111.782 50.9538 111.782ZM76.9926 123.632C76.9926 124.392 76.9426 124.862 76.8426 125.042C76.7426 125.202 76.4526 125.282 75.9726 125.282H66.4326C66.1726 125.282 66.0026 125.322 65.9226 125.402C65.8426 125.462 65.8026 125.572 65.8026 125.732C65.8026 127.232 66.2526 128.482 67.1526 129.482C68.0526 130.482 69.1726 130.982 70.5126 130.982C71.3926 130.982 72.1926 130.742 72.9126 130.262C73.6526 129.782 74.1326 129.172 74.3526 128.432L74.6226 127.562C74.7626 127.082 75.0926 126.842 75.6126 126.842C76.3526 126.842 76.7226 127.222 76.7226 127.982C76.7226 129.282 76.0626 130.442 74.7426 131.462C73.4226 132.462 71.9226 132.962 70.2426 132.962C68.1426 132.962 66.4726 132.262 65.2326 130.862C63.9926 129.442 63.3726 127.542 63.3726 125.162C63.3726 122.722 64.0326 120.742 65.3526 119.222C66.6726 117.702 68.3926 116.942 70.5126 116.942C72.3926 116.942 73.9426 117.572 75.1626 118.832C76.3826 120.092 76.9926 121.692 76.9926 123.632ZM66.1026 122.852C66.1026 123.132 66.3226 123.272 66.7626 123.272H73.9326C74.3526 123.272 74.5626 123.132 74.5626 122.852C74.5626 121.792 74.1626 120.872 73.3626 120.092C72.5626 119.312 71.6226 118.922 70.5426 118.922C69.4226 118.922 68.4026 119.332 67.4826 120.152C66.5626 120.952 66.1026 121.852 66.1026 122.852ZM87.4722 128.312L87.5322 126.392C87.5522 125.572 87.9122 125.162 88.6122 125.162C89.3122 125.162 89.6622 125.622 89.6622 126.542C89.6622 128.722 89.3822 130.242 88.8222 131.102C88.0622 132.262 86.8122 132.842 85.0722 132.842C83.4722 132.842 82.3322 132.332 81.6522 131.312C81.1522 130.572 80.9022 129.312 80.9022 127.532V120.332C80.9022 119.912 80.7122 119.702 80.3322 119.702H79.3722C79.0522 119.702 78.7822 119.602 78.5622 119.402C78.3622 119.182 78.2622 118.922 78.2622 118.622C78.2622 118.342 78.3622 118.092 78.5622 117.872C78.7822 117.652 79.0222 117.542 79.2822 117.542H80.4522C80.7922 117.542 80.9622 117.352 80.9622 116.972V113.882C80.9622 113.122 81.3522 112.742 82.1322 112.742C82.8522 112.742 83.2122 113.122 83.2122 113.882V117.092C83.2122 117.392 83.3922 117.542 83.7522 117.542H87.0222C87.7822 117.542 88.1622 117.892 88.1622 118.592C88.1622 119.332 87.7522 119.702 86.9322 119.702H83.6322C83.3522 119.702 83.2122 119.912 83.2122 120.332V127.712C83.2122 129.812 83.9022 130.862 85.2822 130.862C86.6822 130.862 87.4122 130.012 87.4722 128.312ZM106.444 113.672L114.514 130.442V118.352C114.514 116.792 114.504 115.932 114.484 115.772C114.304 114.732 113.804 114.212 112.984 114.212C112.824 114.212 112.584 114.242 112.264 114.302C111.944 114.342 111.704 114.362 111.544 114.362C111.284 114.362 111.054 114.272 110.854 114.092C110.674 113.892 110.584 113.662 110.584 113.402C110.584 112.682 111.034 112.322 111.934 112.322C112.114 112.322 112.244 112.332 112.324 112.352L113.674 112.532C114.274 112.612 114.834 112.652 115.354 112.652C115.874 112.652 116.564 112.592 117.424 112.472C117.724 112.432 118.074 112.382 118.474 112.322C118.514 112.322 118.584 112.312 118.684 112.292C118.764 112.292 118.834 112.292 118.894 112.292C119.754 112.292 120.184 112.642 120.184 113.342C120.184 114.022 119.784 114.362 118.984 114.362C118.844 114.362 118.734 114.352 118.654 114.332H118.354C117.754 114.332 117.364 114.462 117.184 114.722C117.004 114.982 116.894 115.552 116.854 116.432L116.794 118.142L116.734 121.202V129.212C116.734 130.592 116.574 131.562 116.254 132.122C115.954 132.682 115.424 132.962 114.664 132.962C113.684 132.962 112.854 132.262 112.174 130.862L104.314 114.512V128.462C104.314 129.962 104.824 130.712 105.844 130.712C106.004 130.712 106.244 130.692 106.564 130.652C106.884 130.592 107.124 130.562 107.284 130.562C107.924 130.562 108.244 130.892 108.244 131.552C108.244 132.252 107.794 132.602 106.894 132.602C106.854 132.602 106.794 132.602 106.714 132.602C106.614 132.582 106.544 132.572 106.504 132.572L105.274 132.392C104.594 132.292 103.954 132.242 103.354 132.242C102.834 132.242 102.164 132.292 101.344 132.392L99.874 132.572C99.834 132.572 99.764 132.582 99.664 132.602C99.564 132.602 99.484 132.602 99.424 132.602C98.564 132.602 98.134 132.252 98.134 131.552C98.134 130.932 98.454 130.622 99.094 130.622C99.194 130.622 99.464 130.642 99.904 130.682C100.124 130.742 100.334 130.772 100.534 130.772C101.554 130.772 102.064 130.022 102.064 128.522V126.422L102.094 123.782V121.202L102.064 116.462C102.064 114.962 101.544 114.212 100.504 114.212C100.364 114.212 100.164 114.232 99.904 114.272C99.524 114.332 99.244 114.362 99.064 114.362C98.424 114.362 98.104 114.032 98.104 113.372C98.104 112.672 98.534 112.322 99.394 112.322C99.514 112.322 99.674 112.332 99.874 112.352C100.874 112.452 101.644 112.502 102.184 112.502C102.484 112.502 102.934 112.472 103.534 112.412C104.134 112.352 104.584 112.322 104.884 112.322C105.504 112.322 105.914 112.532 106.114 112.952L106.444 113.672ZM124.914 123.722V121.202L124.884 116.432C124.884 114.952 124.374 114.212 123.354 114.212C123.094 114.212 122.894 114.232 122.754 114.272C122.434 114.332 122.174 114.362 121.974 114.362C121.714 114.362 121.494 114.272 121.314 114.092C121.134 113.892 121.044 113.652 121.044 113.372C121.044 112.672 121.464 112.322 122.304 112.322C122.404 112.322 122.554 112.332 122.754 112.352L124.824 112.562C125.604 112.642 126.474 112.682 127.434 112.682C127.954 112.682 129.074 112.652 130.794 112.592L134.244 112.472C134.704 112.452 135.244 112.422 135.864 112.382C136.144 112.362 136.444 112.352 136.764 112.352C137.824 112.352 138.354 112.822 138.354 113.762C138.354 114.122 138.304 114.672 138.204 115.412C138.104 116.152 138.054 116.712 138.054 117.092C138.054 117.412 138.074 117.812 138.114 118.292C138.154 118.772 138.174 119.212 138.174 119.612C138.174 120.432 137.814 120.842 137.094 120.842C136.354 120.842 135.984 120.372 135.984 119.432C135.984 119.152 135.994 118.722 136.014 118.142C136.054 117.562 136.074 117.132 136.074 116.852C136.074 115.792 135.774 115.122 135.174 114.842C134.574 114.562 133.154 114.422 130.914 114.422C129.014 114.422 127.934 114.592 127.674 114.932C127.474 115.192 127.374 116.112 127.374 117.692V119.912C127.374 120.472 127.444 120.822 127.584 120.962C127.744 121.082 128.164 121.142 128.844 121.142H129.834C131.134 121.142 131.784 120.662 131.784 119.702C131.784 119.482 131.754 119.182 131.694 118.802C131.654 118.422 131.634 118.132 131.634 117.932C131.634 117.172 131.994 116.792 132.714 116.792C133.394 116.792 133.734 117.232 133.734 118.112C133.734 118.232 133.714 118.472 133.674 118.832L133.494 120.452C133.414 121.172 133.374 121.712 133.374 122.072C133.374 122.892 133.464 123.932 133.644 125.192C133.704 125.612 133.734 126.012 133.734 126.392C133.734 127.172 133.374 127.562 132.654 127.562C131.974 127.562 131.634 127.142 131.634 126.302C131.634 126.102 131.644 125.802 131.664 125.402C131.704 125.002 131.724 124.702 131.724 124.502C131.724 123.882 131.554 123.482 131.214 123.302C130.994 123.162 130.534 123.092 129.834 123.092H128.904C128.204 123.092 127.774 123.172 127.614 123.332C127.454 123.492 127.374 123.932 127.374 124.652V128.222C127.374 129.162 127.474 129.802 127.674 130.142C127.894 130.462 128.294 130.622 128.874 130.622C129.014 130.622 129.234 130.612 129.534 130.592C129.834 130.572 130.054 130.562 130.194 130.562C131.114 130.562 131.574 130.902 131.574 131.582C131.574 131.862 131.464 132.102 131.244 132.302C131.044 132.502 130.794 132.602 130.494 132.602C130.174 132.602 129.704 132.552 129.084 132.452C128.204 132.312 127.204 132.242 126.084 132.242C125.364 132.242 124.594 132.302 123.774 132.422L122.754 132.572C122.694 132.572 122.624 132.582 122.544 132.602C122.464 132.602 122.404 132.602 122.364 132.602C121.484 132.602 121.044 132.242 121.044 131.522C121.044 130.882 121.354 130.562 121.974 130.562C122.054 130.562 122.314 130.582 122.754 130.622C122.974 130.682 123.184 130.712 123.384 130.712C123.924 130.712 124.294 130.552 124.494 130.232C124.714 129.892 124.834 129.302 124.854 128.462L124.914 123.722ZM149.758 128.492C149.758 129.992 150.268 130.742 151.288 130.742C151.448 130.742 151.688 130.722 152.008 130.682C152.328 130.622 152.568 130.592 152.728 130.592C152.988 130.592 153.208 130.692 153.388 130.892C153.588 131.072 153.688 131.292 153.688 131.552C153.688 132.252 153.238 132.602 152.338 132.602C152.298 132.602 152.238 132.602 152.158 132.602C152.058 132.582 151.988 132.572 151.948 132.572L150.478 132.362C149.918 132.282 149.288 132.242 148.588 132.242C147.828 132.242 147.158 132.282 146.578 132.362L145.078 132.572C145.018 132.572 144.948 132.582 144.868 132.602C144.768 132.602 144.698 132.602 144.658 132.602C143.778 132.602 143.338 132.252 143.338 131.552C143.338 130.912 143.658 130.592 144.298 130.592C144.458 130.592 144.698 130.622 145.018 130.682C145.338 130.722 145.578 130.742 145.738 130.742C146.738 130.742 147.238 129.992 147.238 128.492V126.392L147.268 123.752V121.202L147.238 116.312C147.238 114.892 146.508 114.182 145.048 114.182H144.118C142.678 114.182 141.958 114.882 141.958 116.282C141.958 116.782 141.968 117.122 141.988 117.302L142.108 118.412C142.128 118.592 142.138 118.842 142.138 119.162C142.138 120.422 141.748 121.052 140.968 121.052C140.228 121.052 139.858 120.592 139.858 119.672C139.858 119.412 139.878 118.962 139.918 118.322C139.978 117.362 140.008 116.752 140.008 116.492C140.008 115.992 139.988 115.472 139.948 114.932C139.868 113.872 139.828 113.422 139.828 113.582C139.828 112.742 140.208 112.322 140.968 112.322C141.248 112.322 141.898 112.352 142.918 112.412C143.018 112.412 143.838 112.432 145.378 112.472L148.798 112.532C149.198 112.532 150.268 112.512 152.008 112.472C152.388 112.472 153.038 112.442 153.958 112.382C154.778 112.322 155.418 112.292 155.878 112.292C156.878 112.292 157.378 112.702 157.378 113.522V113.582C157.378 113.782 157.348 114.152 157.288 114.692C157.248 115.232 157.198 115.812 157.138 116.432V116.762C157.138 117.062 157.168 117.532 157.228 118.172C157.308 119.012 157.348 119.532 157.348 119.732C157.348 120.552 156.958 120.962 156.178 120.962C155.418 120.962 155.038 120.462 155.038 119.462C155.038 119.102 155.068 118.572 155.128 117.872C155.188 117.152 155.218 116.612 155.218 116.252C155.218 114.872 154.428 114.182 152.848 114.182H152.008C151.268 114.182 150.738 114.342 150.418 114.662C150.098 114.962 149.918 115.472 149.878 116.192L149.788 118.292L149.758 128.492ZM362.36 111.782C364.32 111.782 365.92 112.412 367.16 113.672V113.252C367.16 112.472 367.47 112.082 368.09 112.082C368.77 112.082 369.11 112.512 369.11 113.372V113.552C369.11 113.592 369.08 113.892 369.02 114.452C368.96 115.012 368.93 115.682 368.93 116.462C368.93 116.562 368.95 116.882 368.99 117.422L369.08 118.622C369.1 118.722 369.11 118.862 369.11 119.042C369.11 120.002 368.74 120.482 368 120.482C367.22 120.482 366.83 120.082 366.83 119.282C366.83 119.182 366.83 119.132 366.83 119.132L366.89 118.322C366.91 118.042 366.92 117.822 366.92 117.662C366.92 116.462 366.51 115.522 365.69 114.842C364.89 114.162 363.78 113.822 362.36 113.822C361.06 113.822 360.02 114.142 359.24 114.782C358.48 115.422 358.1 116.282 358.1 117.362C358.1 118.622 358.67 119.552 359.81 120.152C360.45 120.472 361.57 120.762 363.17 121.022C365.55 121.402 367.18 121.922 368.06 122.582C369.38 123.562 370.04 124.952 370.04 126.752C370.04 128.632 369.36 130.162 368 131.342C366.66 132.522 364.92 133.112 362.78 133.112C360.5 133.112 358.61 132.392 357.11 130.952C357.11 131.032 357.12 131.122 357.14 131.222C357.14 131.322 357.14 131.382 357.14 131.402C357.18 131.722 357.2 131.932 357.2 132.032C357.2 132.772 356.85 133.142 356.15 133.142C355.39 133.142 355.01 132.722 355.01 131.882C355.01 131.782 355.02 131.702 355.04 131.642L355.16 130.082C355.22 129.302 355.25 128.802 355.25 128.582C355.25 128.182 355.2 127.582 355.1 126.782C355 125.982 354.95 125.382 354.95 124.982C354.95 124.082 355.33 123.632 356.09 123.632C356.87 123.632 357.26 124.082 357.26 124.982V125.522C357.24 125.682 357.23 125.912 357.23 126.212C357.23 127.712 357.71 128.902 358.67 129.782C359.63 130.662 360.93 131.102 362.57 131.102C364.09 131.102 365.3 130.742 366.2 130.022C367.1 129.302 367.55 128.322 367.55 127.082C367.55 125.182 366.35 124.022 363.95 123.602L362.24 123.302C360.54 123.002 359.22 122.652 358.28 122.252C357.42 121.872 356.73 121.282 356.21 120.482C355.71 119.662 355.46 118.742 355.46 117.722C355.46 115.962 356.1 114.532 357.38 113.432C358.66 112.332 360.32 111.782 362.36 111.782ZM380.793 128.312L380.853 126.392C380.873 125.572 381.233 125.162 381.933 125.162C382.633 125.162 382.983 125.622 382.983 126.542C382.983 128.722 382.703 130.242 382.143 131.102C381.383 132.262 380.133 132.842 378.393 132.842C376.793 132.842 375.653 132.332 374.973 131.312C374.473 130.572 374.223 129.312 374.223 127.532V120.332C374.223 119.912 374.033 119.702 373.653 119.702H372.693C372.373 119.702 372.103 119.602 371.883 119.402C371.683 119.182 371.583 118.922 371.583 118.622C371.583 118.342 371.683 118.092 371.883 117.872C372.103 117.652 372.343 117.542 372.603 117.542H373.773C374.113 117.542 374.283 117.352 374.283 116.972V113.882C374.283 113.122 374.673 112.742 375.453 112.742C376.173 112.742 376.533 113.122 376.533 113.882V117.092C376.533 117.392 376.713 117.542 377.073 117.542H380.343C381.103 117.542 381.483 117.892 381.483 118.592C381.483 119.332 381.073 119.702 380.253 119.702H376.953C376.673 119.702 376.533 119.912 376.533 120.332V127.712C376.533 129.812 377.223 130.862 378.603 130.862C380.003 130.862 380.733 130.012 380.793 128.312ZM397.454 132.842C395.814 132.842 394.804 132.132 394.424 130.712C393.404 132.212 391.804 132.962 389.624 132.962C388.004 132.962 386.704 132.562 385.724 131.762C384.764 130.962 384.284 129.892 384.284 128.552C384.284 126.892 384.994 125.672 386.414 124.892C386.954 124.592 387.414 124.402 387.794 124.322C388.194 124.222 388.984 124.102 390.164 123.962C391.844 123.782 392.934 123.532 393.434 123.212C393.954 122.892 394.214 122.302 394.214 121.442C394.214 120.622 393.924 119.982 393.344 119.522C392.784 119.042 391.994 118.802 390.974 118.802C390.074 118.802 389.234 119.052 388.454 119.552C388.154 119.752 388.004 119.962 388.004 120.182C388.004 120.262 388.094 120.362 388.274 120.482C388.554 120.682 388.694 121.022 388.694 121.502C388.694 121.902 388.544 122.232 388.244 122.492C387.964 122.752 387.604 122.882 387.164 122.882C386.644 122.882 386.204 122.702 385.844 122.342C385.504 121.982 385.334 121.542 385.334 121.022C385.334 119.902 385.884 118.942 386.984 118.142C388.104 117.342 389.454 116.942 391.034 116.942C394.674 116.942 396.494 118.692 396.494 122.192V128.252C396.494 129.212 396.514 129.782 396.554 129.962C396.674 130.662 397.014 131.012 397.574 131.012C398.274 131.012 398.624 130.372 398.624 129.092V127.622C398.624 126.982 398.934 126.662 399.554 126.662C400.214 126.662 400.544 127.142 400.544 128.102V128.252L400.514 129.962C400.474 131.882 399.454 132.842 397.454 132.842ZM394.124 126.872L394.154 124.742C393.714 125.142 393.244 125.422 392.744 125.582C392.264 125.742 391.394 125.882 390.134 126.002C387.854 126.222 386.714 127.062 386.714 128.522C386.714 129.282 386.984 129.882 387.524 130.322C388.084 130.762 388.834 130.982 389.774 130.982C391.114 130.982 392.164 130.622 392.924 129.902C393.704 129.162 394.104 128.152 394.124 126.872ZM406.168 124.862L411.298 120.062C411.478 119.902 411.568 119.722 411.568 119.522C411.568 119.322 411.438 119.222 411.178 119.222C410.978 119.222 410.688 119.262 410.308 119.342C409.928 119.422 409.638 119.462 409.438 119.462C408.738 119.462 408.388 119.142 408.388 118.502C408.388 117.802 408.828 117.452 409.708 117.452C409.928 117.452 410.208 117.472 410.548 117.512C411.928 117.672 412.978 117.752 413.698 117.752C414.098 117.752 414.438 117.732 414.718 117.692L415.948 117.512C416.228 117.472 416.458 117.452 416.638 117.452C417.618 117.452 418.108 117.792 418.108 118.472C418.108 119.112 417.768 119.432 417.088 119.432C416.928 119.432 416.698 119.412 416.398 119.372C416.118 119.332 415.898 119.312 415.738 119.312C415.238 119.312 414.718 119.562 414.178 120.062L411.028 122.942C410.808 123.142 410.698 123.302 410.698 123.422C410.698 123.522 410.778 123.672 410.938 123.872L414.778 128.852C415.758 130.112 416.458 130.742 416.878 130.742C416.978 130.742 417.138 130.722 417.358 130.682C417.598 130.622 417.788 130.592 417.928 130.592C418.648 130.592 419.008 130.912 419.008 131.552C419.008 132.232 418.548 132.572 417.628 132.572C417.268 132.572 416.728 132.532 416.008 132.452C415.308 132.372 414.778 132.332 414.418 132.332C414.098 132.332 413.628 132.372 413.008 132.452C412.408 132.532 411.958 132.572 411.658 132.572C410.898 132.572 410.518 132.232 410.518 131.552C410.518 130.912 410.878 130.592 411.598 130.592C411.798 130.592 411.958 130.602 412.078 130.622C412.438 130.722 412.668 130.772 412.768 130.772C412.948 130.772 413.038 130.702 413.038 130.562C413.038 130.542 413.038 130.512 413.038 130.472C413.018 130.452 413.008 130.432 413.008 130.412L412.708 129.992L412.318 129.422L409.318 125.432C409.118 125.172 408.958 125.042 408.838 125.042C408.758 125.042 408.608 125.142 408.388 125.342L406.168 127.322V128.012C406.168 128.972 406.178 129.512 406.198 129.632C406.298 130.332 406.578 130.682 407.038 130.682C407.238 130.682 407.408 130.672 407.548 130.652C407.688 130.612 407.878 130.592 408.118 130.592C408.798 130.592 409.138 130.922 409.138 131.582C409.138 132.242 408.758 132.572 407.998 132.572C407.658 132.572 407.138 132.532 406.438 132.452C405.758 132.352 405.238 132.302 404.878 132.302C404.418 132.302 403.888 132.342 403.288 132.422C402.528 132.522 402.018 132.572 401.758 132.572C400.978 132.572 400.588 132.242 400.588 131.582C400.588 130.922 400.968 130.592 401.728 130.592C401.888 130.592 402.078 130.612 402.298 130.652C402.618 130.712 402.838 130.742 402.958 130.742C403.438 130.742 403.708 130.362 403.768 129.602L403.858 128.432V116.312C403.818 115.232 403.748 114.552 403.648 114.272C403.548 113.972 403.338 113.822 403.018 113.822C402.918 113.822 402.728 113.842 402.448 113.882C402.168 113.982 401.888 114.032 401.608 114.032C400.948 114.032 400.618 113.722 400.618 113.102C400.618 112.422 401.008 112.082 401.788 112.082C402.188 112.082 402.468 112.092 402.628 112.112C403.128 112.172 403.458 112.202 403.618 112.202C403.778 112.202 404.008 112.182 404.308 112.142C404.628 112.082 404.858 112.052 404.998 112.052H405.208C405.848 112.052 406.168 112.462 406.168 113.282V124.862ZM433.213 123.632C433.213 124.392 433.163 124.862 433.063 125.042C432.963 125.202 432.673 125.282 432.193 125.282H422.653C422.393 125.282 422.223 125.322 422.143 125.402C422.063 125.462 422.023 125.572 422.023 125.732C422.023 127.232 422.473 128.482 423.373 129.482C424.273 130.482 425.393 130.982 426.733 130.982C427.613 130.982 428.413 130.742 429.133 130.262C429.873 129.782 430.353 129.172 430.573 128.432L430.843 127.562C430.983 127.082 431.313 126.842 431.833 126.842C432.573 126.842 432.943 127.222 432.943 127.982C432.943 129.282 432.283 130.442 430.963 131.462C429.643 132.462 428.143 132.962 426.463 132.962C424.363 132.962 422.693 132.262 421.453 130.862C420.213 129.442 419.593 127.542 419.593 125.162C419.593 122.722 420.253 120.742 421.573 119.222C422.893 117.702 424.613 116.942 426.733 116.942C428.613 116.942 430.163 117.572 431.383 118.832C432.603 120.092 433.213 121.692 433.213 123.632ZM422.323 122.852C422.323 123.132 422.543 123.272 422.983 123.272H430.153C430.573 123.272 430.783 123.132 430.783 122.852C430.783 121.792 430.383 120.872 429.583 120.092C428.783 119.312 427.843 118.922 426.763 118.922C425.643 118.922 424.623 119.332 423.703 120.152C422.783 120.952 422.323 121.852 422.323 122.852ZM450.653 113.672L458.723 130.442V118.352C458.723 116.792 458.713 115.932 458.693 115.772C458.513 114.732 458.013 114.212 457.193 114.212C457.033 114.212 456.793 114.242 456.473 114.302C456.153 114.342 455.913 114.362 455.753 114.362C455.493 114.362 455.263 114.272 455.063 114.092C454.883 113.892 454.793 113.662 454.793 113.402C454.793 112.682 455.243 112.322 456.143 112.322C456.323 112.322 456.453 112.332 456.533 112.352L457.883 112.532C458.483 112.612 459.043 112.652 459.563 112.652C460.083 112.652 460.773 112.592 461.633 112.472C461.933 112.432 462.283 112.382 462.683 112.322C462.723 112.322 462.793 112.312 462.893 112.292C462.973 112.292 463.043 112.292 463.103 112.292C463.963 112.292 464.393 112.642 464.393 113.342C464.393 114.022 463.993 114.362 463.193 114.362C463.053 114.362 462.943 114.352 462.863 114.332H462.563C461.963 114.332 461.573 114.462 461.393 114.722C461.213 114.982 461.103 115.552 461.063 116.432L461.003 118.142L460.943 121.202V129.212C460.943 130.592 460.783 131.562 460.463 132.122C460.163 132.682 459.633 132.962 458.873 132.962C457.893 132.962 457.063 132.262 456.383 130.862L448.523 114.512V128.462C448.523 129.962 449.033 130.712 450.053 130.712C450.213 130.712 450.453 130.692 450.773 130.652C451.093 130.592 451.333 130.562 451.493 130.562C452.133 130.562 452.453 130.892 452.453 131.552C452.453 132.252 452.003 132.602 451.103 132.602C451.063 132.602 451.003 132.602 450.923 132.602C450.823 132.582 450.753 132.572 450.713 132.572L449.483 132.392C448.803 132.292 448.163 132.242 447.563 132.242C447.043 132.242 446.373 132.292 445.553 132.392L444.083 132.572C444.043 132.572 443.973 132.582 443.873 132.602C443.773 132.602 443.693 132.602 443.633 132.602C442.773 132.602 442.343 132.252 442.343 131.552C442.343 130.932 442.663 130.622 443.303 130.622C443.403 130.622 443.673 130.642 444.113 130.682C444.333 130.742 444.543 130.772 444.743 130.772C445.763 130.772 446.273 130.022 446.273 128.522V126.422L446.303 123.782V121.202L446.273 116.462C446.273 114.962 445.753 114.212 444.713 114.212C444.573 114.212 444.373 114.232 444.113 114.272C443.733 114.332 443.453 114.362 443.273 114.362C442.633 114.362 442.313 114.032 442.313 113.372C442.313 112.672 442.743 112.322 443.603 112.322C443.723 112.322 443.883 112.332 444.083 112.352C445.083 112.452 445.853 112.502 446.393 112.502C446.693 112.502 447.143 112.472 447.743 112.412C448.343 112.352 448.793 112.322 449.093 112.322C449.713 112.322 450.123 112.532 450.323 112.952L450.653 113.672ZM469.123 123.722V121.202L469.093 116.432C469.093 114.952 468.583 114.212 467.563 114.212C467.303 114.212 467.103 114.232 466.963 114.272C466.643 114.332 466.383 114.362 466.183 114.362C465.923 114.362 465.703 114.272 465.523 114.092C465.343 113.892 465.253 113.652 465.253 113.372C465.253 112.672 465.673 112.322 466.513 112.322C466.613 112.322 466.763 112.332 466.963 112.352L469.033 112.562C469.813 112.642 470.683 112.682 471.643 112.682C472.163 112.682 473.283 112.652 475.003 112.592L478.453 112.472C478.913 112.452 479.453 112.422 480.073 112.382C480.353 112.362 480.653 112.352 480.973 112.352C482.033 112.352 482.563 112.822 482.563 113.762C482.563 114.122 482.513 114.672 482.413 115.412C482.313 116.152 482.263 116.712 482.263 117.092C482.263 117.412 482.283 117.812 482.323 118.292C482.363 118.772 482.383 119.212 482.383 119.612C482.383 120.432 482.023 120.842 481.303 120.842C480.563 120.842 480.193 120.372 480.193 119.432C480.193 119.152 480.203 118.722 480.223 118.142C480.263 117.562 480.283 117.132 480.283 116.852C480.283 115.792 479.983 115.122 479.383 114.842C478.783 114.562 477.363 114.422 475.123 114.422C473.223 114.422 472.143 114.592 471.883 114.932C471.683 115.192 471.583 116.112 471.583 117.692V119.912C471.583 120.472 471.653 120.822 471.793 120.962C471.953 121.082 472.373 121.142 473.053 121.142H474.043C475.343 121.142 475.993 120.662 475.993 119.702C475.993 119.482 475.963 119.182 475.903 118.802C475.863 118.422 475.843 118.132 475.843 117.932C475.843 117.172 476.203 116.792 476.923 116.792C477.603 116.792 477.943 117.232 477.943 118.112C477.943 118.232 477.923 118.472 477.883 118.832L477.703 120.452C477.623 121.172 477.583 121.712 477.583 122.072C477.583 122.892 477.673 123.932 477.853 125.192C477.913 125.612 477.943 126.012 477.943 126.392C477.943 127.172 477.583 127.562 476.863 127.562C476.183 127.562 475.843 127.142 475.843 126.302C475.843 126.102 475.853 125.802 475.873 125.402C475.913 125.002 475.933 124.702 475.933 124.502C475.933 123.882 475.763 123.482 475.423 123.302C475.203 123.162 474.743 123.092 474.043 123.092H473.113C472.413 123.092 471.983 123.172 471.823 123.332C471.663 123.492 471.583 123.932 471.583 124.652V128.222C471.583 129.162 471.683 129.802 471.883 130.142C472.103 130.462 472.503 130.622 473.083 130.622C473.223 130.622 473.443 130.612 473.743 130.592C474.043 130.572 474.263 130.562 474.403 130.562C475.323 130.562 475.783 130.902 475.783 131.582C475.783 131.862 475.673 132.102 475.453 132.302C475.253 132.502 475.003 132.602 474.703 132.602C474.383 132.602 473.913 132.552 473.293 132.452C472.413 132.312 471.413 132.242 470.293 132.242C469.573 132.242 468.803 132.302 467.983 132.422L466.963 132.572C466.903 132.572 466.833 132.582 466.753 132.602C466.673 132.602 466.613 132.602 466.573 132.602C465.693 132.602 465.253 132.242 465.253 131.522C465.253 130.882 465.563 130.562 466.183 130.562C466.263 130.562 466.523 130.582 466.963 130.622C467.183 130.682 467.393 130.712 467.593 130.712C468.133 130.712 468.503 130.552 468.703 130.232C468.923 129.892 469.043 129.302 469.063 128.462L469.123 123.722ZM493.967 128.492C493.967 129.992 494.477 130.742 495.497 130.742C495.657 130.742 495.897 130.722 496.217 130.682C496.537 130.622 496.777 130.592 496.937 130.592C497.197 130.592 497.417 130.692 497.597 130.892C497.797 131.072 497.897 131.292 497.897 131.552C497.897 132.252 497.447 132.602 496.547 132.602C496.507 132.602 496.447 132.602 496.367 132.602C496.267 132.582 496.197 132.572 496.157 132.572L494.687 132.362C494.127 132.282 493.497 132.242 492.797 132.242C492.037 132.242 491.367 132.282 490.787 132.362L489.287 132.572C489.227 132.572 489.157 132.582 489.077 132.602C488.977 132.602 488.907 132.602 488.867 132.602C487.987 132.602 487.547 132.252 487.547 131.552C487.547 130.912 487.867 130.592 488.507 130.592C488.667 130.592 488.907 130.622 489.227 130.682C489.547 130.722 489.787 130.742 489.947 130.742C490.947 130.742 491.447 129.992 491.447 128.492V126.392L491.477 123.752V121.202L491.447 116.312C491.447 114.892 490.717 114.182 489.257 114.182H488.327C486.887 114.182 486.167 114.882 486.167 116.282C486.167 116.782 486.177 117.122 486.197 117.302L486.317 118.412C486.337 118.592 486.347 118.842 486.347 119.162C486.347 120.422 485.957 121.052 485.177 121.052C484.437 121.052 484.067 120.592 484.067 119.672C484.067 119.412 484.087 118.962 484.127 118.322C484.187 117.362 484.217 116.752 484.217 116.492C484.217 115.992 484.197 115.472 484.157 114.932C484.077 113.872 484.037 113.422 484.037 113.582C484.037 112.742 484.417 112.322 485.177 112.322C485.457 112.322 486.107 112.352 487.127 112.412C487.227 112.412 488.047 112.432 489.587 112.472L493.007 112.532C493.407 112.532 494.477 112.512 496.217 112.472C496.597 112.472 497.247 112.442 498.167 112.382C498.987 112.322 499.627 112.292 500.087 112.292C501.087 112.292 501.587 112.702 501.587 113.522V113.582C501.587 113.782 501.557 114.152 501.497 114.692C501.457 115.232 501.407 115.812 501.347 116.432V116.762C501.347 117.062 501.377 117.532 501.437 118.172C501.517 119.012 501.557 119.532 501.557 119.732C501.557 120.552 501.167 120.962 500.387 120.962C499.627 120.962 499.247 120.462 499.247 119.462C499.247 119.102 499.277 118.572 499.337 117.872C499.397 117.152 499.427 116.612 499.427 116.252C499.427 114.872 498.637 114.182 497.057 114.182H496.217C495.477 114.182 494.947 114.342 494.627 114.662C494.307 114.962 494.127 115.472 494.087 116.192L493.997 118.292L493.967 128.492ZM701.829 116.432C701.829 114.952 701.319 114.212 700.299 114.212C700.019 114.212 699.809 114.232 699.669 114.272C699.349 114.332 699.079 114.362 698.859 114.362C698.599 114.362 698.379 114.272 698.199 114.092C698.019 113.892 697.929 113.652 697.929 113.372C697.929 112.672 698.349 112.322 699.189 112.322C699.209 112.322 699.359 112.332 699.639 112.352C702.639 112.552 704.039 112.652 703.839 112.652C704.039 112.652 704.139 112.652 704.139 112.652L711.369 112.442C711.509 112.442 712.029 112.412 712.929 112.352C713.249 112.332 713.539 112.322 713.799 112.322C714.839 112.322 715.359 112.782 715.359 113.702C715.359 113.862 715.319 114.372 715.239 115.232C715.179 115.872 715.149 116.462 715.149 117.002C715.149 117.702 715.169 118.192 715.209 118.472C715.289 119.052 715.329 119.482 715.329 119.762C715.329 120.522 714.969 120.902 714.249 120.902C713.529 120.902 713.169 120.372 713.169 119.312V117.752C713.169 116.072 712.819 115.082 712.119 114.782C711.599 114.562 710.259 114.452 708.099 114.452C706.679 114.452 705.839 114.482 705.579 114.542C704.719 114.762 704.289 115.362 704.289 116.342V117.692C704.289 117.852 704.289 118.072 704.289 118.352C704.269 118.632 704.259 118.832 704.259 118.952V119.342C704.259 120.142 704.439 120.602 704.799 120.722C704.939 120.762 705.179 120.782 705.519 120.782H706.749C708.009 120.782 708.639 120.352 708.639 119.492C708.639 119.252 708.609 118.942 708.549 118.562C708.489 118.182 708.459 117.842 708.459 117.542C708.459 116.742 708.819 116.342 709.539 116.342C710.259 116.342 710.619 116.772 710.619 117.632C710.619 117.792 710.549 118.412 710.409 119.492C710.289 120.412 710.229 121.222 710.229 121.922C710.229 122.322 710.269 123.032 710.349 124.052C710.369 124.212 710.419 124.562 710.499 125.102C710.559 125.542 710.589 125.892 710.589 126.152C710.589 126.872 710.229 127.232 709.509 127.232C708.809 127.232 708.459 126.812 708.459 125.972C708.459 125.752 708.479 125.432 708.519 125.012C708.579 124.592 708.609 124.272 708.609 124.052C708.609 123.192 708.039 122.762 706.899 122.762H705.549C704.969 122.762 704.609 122.862 704.469 123.062C704.349 123.262 704.289 123.692 704.289 124.352V126.212C704.289 126.532 704.299 126.962 704.319 127.502C704.339 128.162 704.349 128.602 704.349 128.822C704.369 129.622 704.529 130.122 704.829 130.322C705.049 130.462 705.569 130.532 706.389 130.532H710.469C711.649 130.532 712.459 130.362 712.899 130.022C713.339 129.662 713.559 129.002 713.559 128.042C713.559 127.742 713.539 127.302 713.499 126.722C713.479 126.122 713.469 125.672 713.469 125.372C713.469 124.472 713.829 124.022 714.549 124.022C715.309 124.022 715.689 124.482 715.689 125.402C715.689 125.762 715.669 126.312 715.629 127.052C715.589 127.792 715.569 128.342 715.569 128.702C715.569 128.982 715.579 129.402 715.599 129.962C715.639 130.502 715.659 130.912 715.659 131.192C715.659 132.132 715.199 132.602 714.279 132.602C714.059 132.602 713.709 132.582 713.229 132.542C712.989 132.522 712.549 132.512 711.909 132.512C712.049 132.512 711.269 132.492 709.569 132.452C707.869 132.412 706.399 132.392 705.159 132.392C703.279 132.392 701.439 132.452 699.639 132.572C699.559 132.572 699.469 132.582 699.369 132.602C699.269 132.602 699.209 132.602 699.189 132.602C698.349 132.602 697.929 132.242 697.929 131.522C697.929 130.882 698.239 130.562 698.859 130.562C698.959 130.562 699.229 130.582 699.669 130.622C699.889 130.682 700.099 130.712 700.299 130.712C701.319 130.712 701.829 129.962 701.829 128.462V116.432ZM731.614 132.842C729.974 132.842 728.964 132.132 728.584 130.712C727.564 132.212 725.964 132.962 723.784 132.962C722.164 132.962 720.864 132.562 719.884 131.762C718.924 130.962 718.444 129.892 718.444 128.552C718.444 126.892 719.154 125.672 720.574 124.892C721.114 124.592 721.574 124.402 721.954 124.322C722.354 124.222 723.144 124.102 724.324 123.962C726.004 123.782 727.094 123.532 727.594 123.212C728.114 122.892 728.374 122.302 728.374 121.442C728.374 120.622 728.084 119.982 727.504 119.522C726.944 119.042 726.154 118.802 725.134 118.802C724.234 118.802 723.394 119.052 722.614 119.552C722.314 119.752 722.164 119.962 722.164 120.182C722.164 120.262 722.254 120.362 722.434 120.482C722.714 120.682 722.854 121.022 722.854 121.502C722.854 121.902 722.704 122.232 722.404 122.492C722.124 122.752 721.764 122.882 721.324 122.882C720.804 122.882 720.364 122.702 720.004 122.342C719.664 121.982 719.494 121.542 719.494 121.022C719.494 119.902 720.044 118.942 721.144 118.142C722.264 117.342 723.614 116.942 725.194 116.942C728.834 116.942 730.654 118.692 730.654 122.192V128.252C730.654 129.212 730.674 129.782 730.714 129.962C730.834 130.662 731.174 131.012 731.734 131.012C732.434 131.012 732.784 130.372 732.784 129.092V127.622C732.784 126.982 733.094 126.662 733.714 126.662C734.374 126.662 734.704 127.142 734.704 128.102V128.252L734.674 129.962C734.634 131.882 733.614 132.842 731.614 132.842ZM728.284 126.872L728.314 124.742C727.874 125.142 727.404 125.422 726.904 125.582C726.424 125.742 725.554 125.882 724.294 126.002C722.014 126.222 720.874 127.062 720.874 128.522C720.874 129.282 721.144 129.882 721.684 130.322C722.244 130.762 722.994 130.982 723.934 130.982C725.274 130.982 726.324 130.622 727.084 129.902C727.864 129.162 728.264 128.152 728.284 126.872ZM740.178 118.322V119.132C741.218 117.672 742.608 116.942 744.348 116.942C745.748 116.942 746.878 117.342 747.738 118.142C748.618 118.922 749.058 119.932 749.058 121.172C749.058 122.052 748.838 122.772 748.398 123.332C747.958 123.872 747.378 124.142 746.658 124.142C746.198 124.142 745.808 124.002 745.488 123.722C745.168 123.442 745.008 123.102 745.008 122.702C745.008 122.382 745.128 122.102 745.368 121.862C745.608 121.602 745.888 121.472 746.208 121.472C746.268 121.472 746.398 121.502 746.598 121.562C746.718 121.322 746.778 121.102 746.778 120.902C746.778 120.322 746.518 119.832 745.998 119.432C745.498 119.032 744.868 118.832 744.108 118.832C742.548 118.832 741.508 119.532 740.988 120.932C740.668 121.792 740.508 123.092 740.508 124.832V126.812C740.508 128.152 740.518 128.902 740.538 129.062C740.638 130.202 740.948 130.772 741.468 130.772C741.728 130.772 741.998 130.732 742.278 130.652C742.498 130.592 742.688 130.562 742.848 130.562C743.488 130.562 743.808 130.882 743.808 131.522C743.808 132.222 743.398 132.572 742.578 132.572H742.458C742.158 132.572 741.698 132.532 741.078 132.452C740.478 132.392 740.028 132.362 739.728 132.362C738.928 132.362 738.298 132.382 737.838 132.422L736.158 132.572C735.338 132.572 734.928 132.222 734.928 131.522C734.928 130.902 735.308 130.592 736.068 130.592C736.268 130.592 736.418 130.602 736.518 130.622L736.968 130.712C737.168 130.752 737.308 130.772 737.388 130.772C737.888 130.772 738.158 130.312 738.198 129.392L738.258 127.862L738.168 121.052C738.108 119.872 737.808 119.282 737.268 119.282C737.108 119.282 736.888 119.312 736.608 119.372C736.328 119.432 736.108 119.462 735.948 119.462C735.288 119.462 734.958 119.142 734.958 118.502C734.958 117.802 735.388 117.452 736.248 117.452C736.448 117.452 736.748 117.482 737.148 117.542C737.548 117.582 737.848 117.602 738.048 117.602C738.208 117.602 738.468 117.582 738.828 117.542C738.988 117.502 739.178 117.482 739.398 117.482C739.918 117.482 740.178 117.762 740.178 118.322ZM755.385 118.382V119.222C756.585 117.702 758.185 116.942 760.185 116.942C761.265 116.942 762.285 117.222 763.245 117.782C764.205 118.322 764.855 119.002 765.195 119.822C765.475 120.502 765.615 121.392 765.615 122.492V128.192C765.615 129.052 765.625 129.562 765.645 129.722C765.745 130.402 766.015 130.742 766.455 130.742C766.635 130.742 766.865 130.722 767.145 130.682C767.445 130.622 767.655 130.592 767.775 130.592C768.035 130.592 768.255 130.682 768.435 130.862C768.635 131.042 768.735 131.262 768.735 131.522C768.735 131.822 768.615 132.072 768.375 132.272C768.135 132.472 767.845 132.572 767.505 132.572C767.225 132.572 766.765 132.532 766.125 132.452C765.485 132.372 764.885 132.332 764.325 132.332C763.805 132.332 763.375 132.352 763.035 132.392C762.035 132.512 761.505 132.572 761.445 132.572C760.645 132.572 760.245 132.222 760.245 131.522C760.245 130.902 760.585 130.592 761.265 130.592C761.425 130.592 761.605 130.612 761.805 130.652C762.185 130.732 762.425 130.772 762.525 130.772C763.005 130.772 763.265 130.222 763.305 129.122L763.365 127.592L763.395 125.762V123.482C763.395 122.422 763.345 121.692 763.245 121.292C763.065 120.532 762.675 119.942 762.075 119.522C761.415 119.062 760.665 118.832 759.825 118.832C758.225 118.832 757.075 119.402 756.375 120.542C755.895 121.322 755.655 122.652 755.655 124.532V128.522C755.655 129.402 755.715 130.002 755.835 130.322C755.955 130.642 756.175 130.802 756.495 130.802C756.655 130.802 756.875 130.762 757.155 130.682C757.435 130.602 757.665 130.562 757.845 130.562C758.465 130.562 758.775 130.902 758.775 131.582C758.775 132.242 758.375 132.572 757.575 132.572C757.415 132.572 756.895 132.512 756.015 132.392C755.575 132.332 755.085 132.302 754.545 132.302C754.125 132.302 753.565 132.342 752.865 132.422C751.985 132.522 751.485 132.572 751.365 132.572C750.525 132.572 750.105 132.232 750.105 131.552C750.105 130.912 750.425 130.592 751.065 130.592C751.165 130.592 751.345 130.622 751.605 130.682C751.885 130.742 752.155 130.772 752.415 130.772C753.015 130.772 753.325 130.192 753.345 129.032L753.405 125.702V122.072L753.345 121.022C753.305 120.342 753.215 119.882 753.075 119.642C752.955 119.382 752.735 119.252 752.415 119.252C752.275 119.252 752.065 119.282 751.785 119.342C751.525 119.382 751.325 119.402 751.185 119.402C750.465 119.402 750.105 119.082 750.105 118.442C750.105 117.782 750.555 117.452 751.455 117.452C751.575 117.452 751.675 117.462 751.755 117.482L752.865 117.602C753.185 117.602 753.465 117.582 753.705 117.542C754.225 117.502 754.495 117.482 754.515 117.482C755.095 117.482 755.385 117.782 755.385 118.382ZM781.926 118.322V119.132C782.966 117.672 784.356 116.942 786.096 116.942C787.496 116.942 788.626 117.342 789.486 118.142C790.366 118.922 790.806 119.932 790.806 121.172C790.806 122.052 790.586 122.772 790.146 123.332C789.706 123.872 789.126 124.142 788.406 124.142C787.946 124.142 787.556 124.002 787.236 123.722C786.916 123.442 786.756 123.102 786.756 122.702C786.756 122.382 786.876 122.102 787.116 121.862C787.356 121.602 787.636 121.472 787.956 121.472C788.016 121.472 788.146 121.502 788.346 121.562C788.466 121.322 788.526 121.102 788.526 120.902C788.526 120.322 788.266 119.832 787.746 119.432C787.246 119.032 786.616 118.832 785.856 118.832C784.296 118.832 783.256 119.532 782.736 120.932C782.416 121.792 782.256 123.092 782.256 124.832V126.812C782.256 128.152 782.266 128.902 782.286 129.062C782.386 130.202 782.696 130.772 783.216 130.772C783.476 130.772 783.746 130.732 784.026 130.652C784.246 130.592 784.436 130.562 784.596 130.562C785.236 130.562 785.556 130.882 785.556 131.522C785.556 132.222 785.146 132.572 784.326 132.572H784.206C783.906 132.572 783.446 132.532 782.826 132.452C782.226 132.392 781.776 132.362 781.476 132.362C780.676 132.362 780.046 132.382 779.586 132.422L777.906 132.572C777.086 132.572 776.676 132.222 776.676 131.522C776.676 130.902 777.056 130.592 777.816 130.592C778.016 130.592 778.166 130.602 778.266 130.622L778.716 130.712C778.916 130.752 779.056 130.772 779.136 130.772C779.636 130.772 779.906 130.312 779.946 129.392L780.006 127.862L779.916 121.052C779.856 119.872 779.556 119.282 779.016 119.282C778.856 119.282 778.636 119.312 778.356 119.372C778.076 119.432 777.856 119.462 777.696 119.462C777.036 119.462 776.706 119.142 776.706 118.502C776.706 117.802 777.136 117.452 777.996 117.452C778.196 117.452 778.496 117.482 778.896 117.542C779.296 117.582 779.596 117.602 779.796 117.602C779.956 117.602 780.216 117.582 780.576 117.542C780.736 117.502 780.926 117.482 781.146 117.482C781.666 117.482 781.926 117.762 781.926 118.322ZM805.752 123.632C805.752 124.392 805.702 124.862 805.602 125.042C805.502 125.202 805.212 125.282 804.732 125.282H795.192C794.932 125.282 794.762 125.322 794.682 125.402C794.602 125.462 794.562 125.572 794.562 125.732C794.562 127.232 795.012 128.482 795.912 129.482C796.812 130.482 797.932 130.982 799.272 130.982C800.152 130.982 800.952 130.742 801.672 130.262C802.412 129.782 802.892 129.172 803.112 128.432L803.382 127.562C803.522 127.082 803.852 126.842 804.372 126.842C805.112 126.842 805.482 127.222 805.482 127.982C805.482 129.282 804.822 130.442 803.502 131.462C802.182 132.462 800.682 132.962 799.002 132.962C796.902 132.962 795.232 132.262 793.992 130.862C792.752 129.442 792.132 127.542 792.132 125.162C792.132 122.722 792.792 120.742 794.112 119.222C795.432 117.702 797.152 116.942 799.272 116.942C801.152 116.942 802.702 117.572 803.922 118.832C805.142 120.092 805.752 121.692 805.752 123.632ZM794.862 122.852C794.862 123.132 795.082 123.272 795.522 123.272H802.692C803.112 123.272 803.322 123.132 803.322 122.852C803.322 121.792 802.922 120.872 802.122 120.092C801.322 119.312 800.382 118.922 799.302 118.922C798.182 118.922 797.162 119.332 796.242 120.152C795.322 120.952 794.862 121.852 794.862 122.852ZM812.182 121.652L814.372 130.772L816.712 120.212C816.952 119.092 817.212 118.352 817.492 117.992C817.792 117.612 818.242 117.422 818.842 117.422C819.462 117.422 819.912 117.612 820.192 117.992C820.492 118.372 820.762 119.112 821.002 120.212L823.252 130.772L825.472 121.652C825.612 121.072 825.682 120.572 825.682 120.152V120.092C825.682 119.552 825.452 119.282 824.992 119.282C824.812 119.282 824.552 119.322 824.212 119.402C823.872 119.462 823.612 119.492 823.432 119.492C822.692 119.492 822.322 119.162 822.322 118.502C822.322 117.802 822.812 117.452 823.792 117.452C823.932 117.452 824.082 117.462 824.242 117.482L825.472 117.632C825.792 117.672 826.292 117.692 826.972 117.692C827.512 117.692 828.032 117.662 828.532 117.602L829.522 117.482C829.602 117.462 829.712 117.452 829.852 117.452C830.712 117.452 831.142 117.792 831.142 118.472C831.142 119.132 830.812 119.462 830.152 119.462C829.932 119.462 829.762 119.442 829.642 119.402C829.322 119.362 829.142 119.342 829.102 119.342C828.562 119.342 828.002 120.452 827.422 122.672L825.382 130.382C825.142 131.322 824.862 131.982 824.542 132.362C824.222 132.722 823.782 132.902 823.222 132.902C822.162 132.902 821.452 132.062 821.092 130.382L818.842 119.702L816.502 130.202C816.282 131.202 816.002 131.912 815.662 132.332C815.322 132.732 814.862 132.932 814.282 132.932C813.342 132.932 812.712 132.312 812.392 131.072L809.512 120.272C809.332 119.632 809.052 119.312 808.672 119.312C808.552 119.312 808.372 119.342 808.132 119.402C807.812 119.442 807.592 119.462 807.472 119.462C806.812 119.462 806.482 119.142 806.482 118.502C806.482 117.802 806.932 117.452 807.832 117.452C807.992 117.452 808.102 117.462 808.162 117.482L809.452 117.662C809.732 117.702 810.102 117.722 810.562 117.722C811.122 117.722 811.762 117.682 812.482 117.602C813.382 117.502 813.902 117.452 814.042 117.452C814.922 117.452 815.362 117.792 815.362 118.472C815.362 119.132 814.992 119.462 814.252 119.462C814.112 119.462 813.862 119.442 813.502 119.402C813.242 119.322 812.992 119.282 812.752 119.282C812.232 119.282 811.972 119.582 811.972 120.182C811.972 120.582 812.042 121.072 812.182 121.652ZM844.905 132.842C843.265 132.842 842.255 132.132 841.875 130.712C840.855 132.212 839.255 132.962 837.075 132.962C835.455 132.962 834.155 132.562 833.175 131.762C832.215 130.962 831.735 129.892 831.735 128.552C831.735 126.892 832.445 125.672 833.865 124.892C834.405 124.592 834.865 124.402 835.245 124.322C835.645 124.222 836.435 124.102 837.615 123.962C839.295 123.782 840.385 123.532 840.885 123.212C841.405 122.892 841.665 122.302 841.665 121.442C841.665 120.622 841.375 119.982 840.795 119.522C840.235 119.042 839.445 118.802 838.425 118.802C837.525 118.802 836.685 119.052 835.905 119.552C835.605 119.752 835.455 119.962 835.455 120.182C835.455 120.262 835.545 120.362 835.725 120.482C836.005 120.682 836.145 121.022 836.145 121.502C836.145 121.902 835.995 122.232 835.695 122.492C835.415 122.752 835.055 122.882 834.615 122.882C834.095 122.882 833.655 122.702 833.295 122.342C832.955 121.982 832.785 121.542 832.785 121.022C832.785 119.902 833.335 118.942 834.435 118.142C835.555 117.342 836.905 116.942 838.485 116.942C842.125 116.942 843.945 118.692 843.945 122.192V128.252C843.945 129.212 843.965 129.782 844.005 129.962C844.125 130.662 844.465 131.012 845.025 131.012C845.725 131.012 846.075 130.372 846.075 129.092V127.622C846.075 126.982 846.385 126.662 847.005 126.662C847.665 126.662 847.995 127.142 847.995 128.102V128.252L847.965 129.962C847.925 131.882 846.905 132.842 844.905 132.842ZM841.575 126.872L841.605 124.742C841.165 125.142 840.695 125.422 840.195 125.582C839.715 125.742 838.845 125.882 837.585 126.002C835.305 126.222 834.165 127.062 834.165 128.522C834.165 129.282 834.435 129.882 834.975 130.322C835.535 130.762 836.285 130.982 837.225 130.982C838.565 130.982 839.615 130.622 840.375 129.902C841.155 129.162 841.555 128.152 841.575 126.872ZM853.469 118.322V119.132C854.509 117.672 855.899 116.942 857.639 116.942C859.039 116.942 860.169 117.342 861.029 118.142C861.909 118.922 862.349 119.932 862.349 121.172C862.349 122.052 862.129 122.772 861.689 123.332C861.249 123.872 860.669 124.142 859.949 124.142C859.489 124.142 859.099 124.002 858.779 123.722C858.459 123.442 858.299 123.102 858.299 122.702C858.299 122.382 858.419 122.102 858.659 121.862C858.899 121.602 859.179 121.472 859.499 121.472C859.559 121.472 859.689 121.502 859.889 121.562C860.009 121.322 860.069 121.102 860.069 120.902C860.069 120.322 859.809 119.832 859.289 119.432C858.789 119.032 858.159 118.832 857.399 118.832C855.839 118.832 854.799 119.532 854.279 120.932C853.959 121.792 853.799 123.092 853.799 124.832V126.812C853.799 128.152 853.809 128.902 853.829 129.062C853.929 130.202 854.239 130.772 854.759 130.772C855.019 130.772 855.289 130.732 855.569 130.652C855.789 130.592 855.979 130.562 856.139 130.562C856.779 130.562 857.099 130.882 857.099 131.522C857.099 132.222 856.689 132.572 855.869 132.572H855.749C855.449 132.572 854.989 132.532 854.369 132.452C853.769 132.392 853.319 132.362 853.019 132.362C852.219 132.362 851.589 132.382 851.129 132.422L849.449 132.572C848.629 132.572 848.219 132.222 848.219 131.522C848.219 130.902 848.599 130.592 849.359 130.592C849.559 130.592 849.709 130.602 849.809 130.622L850.259 130.712C850.459 130.752 850.599 130.772 850.679 130.772C851.179 130.772 851.449 130.312 851.489 129.392L851.549 127.862L851.459 121.052C851.399 119.872 851.099 119.282 850.559 119.282C850.399 119.282 850.179 119.312 849.899 119.372C849.619 119.432 849.399 119.462 849.239 119.462C848.579 119.462 848.249 119.142 848.249 118.502C848.249 117.802 848.679 117.452 849.539 117.452C849.739 117.452 850.039 117.482 850.439 117.542C850.839 117.582 851.139 117.602 851.339 117.602C851.499 117.602 851.759 117.582 852.119 117.542C852.279 117.502 852.469 117.482 852.689 117.482C853.209 117.482 853.469 117.762 853.469 118.322ZM870.395 116.942C872.375 116.942 873.855 117.712 874.835 119.252V116.222C874.835 115.422 874.815 114.932 874.775 114.752C874.675 114.132 874.395 113.822 873.935 113.822C873.775 113.822 873.545 113.852 873.245 113.912C872.965 113.972 872.745 114.002 872.585 114.002C871.845 114.002 871.475 113.682 871.475 113.042C871.475 112.382 871.975 112.052 872.975 112.052C873.135 112.052 873.425 112.072 873.845 112.112C874.485 112.172 874.815 112.202 874.835 112.202C875.015 112.202 875.275 112.182 875.615 112.142C875.955 112.102 876.215 112.082 876.395 112.082C876.955 112.082 877.235 112.482 877.235 113.282V113.612C877.215 113.672 877.195 114.202 877.175 115.202C877.175 115.322 877.145 116.092 877.085 117.512C877.045 118.512 877.025 119.272 877.025 119.792V122.732L877.085 127.742C877.105 129.062 877.165 129.882 877.265 130.202C877.365 130.522 877.605 130.682 877.985 130.682C878.245 130.682 878.445 130.662 878.585 130.622C878.905 130.582 879.125 130.562 879.245 130.562C879.985 130.562 880.355 130.892 880.355 131.552C880.355 132.232 879.905 132.572 879.005 132.572C878.805 132.572 878.495 132.542 878.075 132.482C877.675 132.442 877.375 132.422 877.175 132.422C877.115 132.422 876.885 132.442 876.485 132.482C876.245 132.542 876.035 132.572 875.855 132.572C875.315 132.572 875.045 132.212 875.045 131.492V131.342L875.075 130.832C874.015 132.252 872.475 132.962 870.455 132.962C868.415 132.962 866.775 132.222 865.535 130.742C864.295 129.262 863.675 127.322 863.675 124.922C863.675 122.502 864.285 120.572 865.505 119.132C866.725 117.672 868.355 116.942 870.395 116.942ZM874.655 127.532C874.735 126.872 874.775 126.022 874.775 124.982C874.775 123.642 874.725 122.732 874.625 122.252C874.445 121.252 874.015 120.472 873.335 119.912C872.535 119.252 871.615 118.922 870.575 118.922C869.175 118.922 868.075 119.452 867.275 120.512C866.495 121.572 866.105 123.022 866.105 124.862C866.105 126.762 866.515 128.262 867.335 129.362C868.155 130.442 869.275 130.982 870.695 130.982C871.775 130.982 872.675 130.672 873.395 130.052C874.115 129.412 874.535 128.572 874.655 127.532Z" fill="white"/>
<path d="M474.925 46.0492L474.921 43.5492L472.795 43.5527L472.457 45.6511L474.925 46.0492ZM475.504 46.0482L475.508 48.5482L475.504 46.0482ZM747.697 45.5964L747.693 43.0964L747.697 45.5964ZM748.005 45.5959L750.478 45.2282L750.16 43.0923L748.001 43.0959L748.005 45.5959ZM821.918 46.0921L821.897 43.5922L819.788 43.6102L819.45 45.6912L821.918 46.0921ZM880.021 45.5963L880.043 48.0962H880.043L880.021 45.5963ZM882.521 45.575L882.543 48.0749L885.042 48.0535L885.021 45.5536L882.521 45.575ZM882.479 40.5752L884.979 40.5538L884.957 38.0539L882.457 38.0752L882.479 40.5752ZM879.979 40.5965L880 43.0964H880L879.979 40.5965ZM822.39 41.0879L819.891 41.0199L819.82 43.6099L822.411 43.5878L822.39 41.0879ZM747.6 40.5965L747.604 43.0965L750.136 43.0923L750.1 40.5606L747.6 40.5965ZM475.496 41.0482L475.492 38.5482H475.492L475.496 41.0482ZM475.391 41.0484L472.891 40.9827L472.824 43.5527L475.395 43.5484L475.391 41.0484ZM400.6 40.5482L400.603 43.0482L403.132 43.0443L403.099 40.5156L400.6 40.5482ZM400.592 40.5482L400.588 38.0482H400.588L400.592 40.5482ZM128.4 41L128.404 43.5H128.404L128.4 41ZM128.349 41.0001L125.852 41.1348L125.98 43.504L128.353 43.5001L128.349 41.0001ZM53.6514 41V43.5H56.0201L56.1478 41.1347L53.6514 41ZM3 41V38.5H0.5V41H3ZM3 46H0.5V48.5H3V46ZM53.711 46L56.2034 45.8054L56.0235 43.5H53.711V46ZM128.289 46.0002L128.285 43.5002L125.976 43.5041L125.797 45.8056L128.289 46.0002ZM128.408 46L128.404 43.5H128.404L128.408 46ZM400.6 45.5482L400.605 48.0482L400.6 45.5482ZM400.998 45.5475L403.471 45.1831L403.156 43.044L400.994 43.0475L400.998 45.5475ZM468.904 40.0482C468.904 57.1159 455.068 70.9519 438 70.9519V75.9519C457.829 75.9519 473.904 59.8773 473.904 40.0482H468.904ZM438 9.14447C455.068 9.14447 468.904 22.9805 468.904 40.0482H473.904C473.904 20.2191 457.829 4.14447 438 4.14447V9.14447ZM407.096 40.0482C407.096 22.9805 420.932 9.14447 438 9.14447V4.14447C418.171 4.14447 402.096 20.2191 402.096 40.0482H407.096ZM438 70.9519C420.932 70.9519 407.096 57.1159 407.096 40.0482H402.096C402.096 59.8773 418.171 75.9519 438 75.9519V70.9519ZM472.457 45.6511C469.778 62.2638 455.368 74.9519 438 74.9519V79.9519C457.861 79.9519 474.329 65.4439 477.393 46.4472L472.457 45.6511ZM475.5 43.5482L474.921 43.5492L474.929 48.5492L475.508 48.5482L475.5 43.5482ZM747.693 43.0964L475.5 43.5482L475.508 48.5482L747.701 48.0964L747.693 43.0964ZM748.001 43.0959L747.693 43.0964L747.701 48.0964L748.009 48.0959L748.001 43.0959ZM745.532 45.9635C748.392 65.1973 764.971 79.9519 785 79.9519V74.9519C767.484 74.9519 752.978 62.0477 750.478 45.2282L745.532 45.9635ZM785 79.9519C804.845 79.9519 821.303 65.4672 824.386 46.493L819.45 45.6912C816.755 62.2842 802.354 74.9519 785 74.9519V79.9519ZM821.939 48.592L880.043 48.0962L880 43.0964L821.897 43.5922L821.939 48.592ZM880.043 48.0962L882.543 48.0749L882.5 43.0751L880 43.0964L880.043 48.0962ZM885.021 45.5536L884.979 40.5538L879.979 40.5965L880.021 45.5963L885.021 45.5536ZM882.457 38.0752L879.957 38.0966L880 43.0964L882.5 43.0751L882.457 38.0752ZM879.957 38.0966L822.368 38.588L822.411 43.5878L880 43.0964L879.957 38.0966ZM824.889 41.1559C824.899 40.788 824.904 40.4187 824.904 40.0482H819.904C819.904 40.3731 819.899 40.697 819.891 41.0199L824.889 41.1559ZM824.904 40.0482C824.904 18.01 807.038 0.14447 785 0.14447V5.14447C804.277 5.14447 819.904 20.7714 819.904 40.0482H824.904ZM785 0.14447C762.962 0.14447 745.096 18.01 745.096 40.0482H750.096C750.096 20.7714 765.723 5.14447 785 5.14447V0.14447ZM745.096 40.0482C745.096 40.2435 745.098 40.4383 745.1 40.6325L750.1 40.5606C750.098 40.3899 750.096 40.2191 750.096 40.0482H745.096ZM475.5 43.5482L747.604 43.0965L747.596 38.0965L475.492 38.5482L475.5 43.5482ZM475.395 43.5484L475.5 43.5482L475.492 38.5482L475.386 38.5484L475.395 43.5484ZM472.904 40.0482C472.904 40.3607 472.9 40.6723 472.891 40.9827L477.89 41.114C477.899 40.7598 477.904 40.4045 477.904 40.0482H472.904ZM438 5.14447C457.277 5.14447 472.904 20.7714 472.904 40.0482H477.904C477.904 18.01 460.038 0.14447 438 0.14447V5.14447ZM403.096 40.0482C403.096 20.7714 418.723 5.14447 438 5.14447V0.14447C415.962 0.14447 398.096 18.01 398.096 40.0482H403.096ZM403.099 40.5156C403.097 40.36 403.096 40.2042 403.096 40.0482H398.096C398.096 40.2261 398.097 40.4036 398.1 40.5807L403.099 40.5156ZM400.596 43.0482L400.603 43.0482L400.596 38.0482L400.588 38.0482L400.596 43.0482ZM128.404 43.5L400.596 43.0482L400.588 38.0482L128.395 38.5L128.404 43.5ZM128.353 43.5001L128.404 43.5L128.395 38.5L128.344 38.5001L128.353 43.5001ZM91 8.14447C109.635 8.14447 124.86 22.749 125.852 41.1348L130.845 40.8654C129.71 19.8411 112.306 3.14447 91 3.14447V8.14447ZM56.1478 41.1347C57.14 22.749 72.3653 8.14447 91 8.14447V3.14447C69.6941 3.14447 52.2896 19.8411 51.155 40.8653L56.1478 41.1347ZM53.5 43.5H53.6514V38.5H53.5V43.5ZM5.5 43.5H53.5V38.5H5.5V43.5ZM3 43.5H5.5V38.5H3V43.5ZM5.5 46V41H0.5V46H5.5ZM5.5 43.5H3V48.5H5.5V43.5ZM53.5 43.5H5.5V48.5H53.5V43.5ZM53.711 43.5H53.5V48.5H53.711V43.5ZM91 77.9519C72.6514 77.9519 57.6076 63.7921 56.2034 45.8054L51.2186 46.1946C52.8244 66.7633 70.0205 82.9519 91 82.9519V77.9519ZM125.797 45.8056C124.392 63.7922 109.349 77.9519 91 77.9519V82.9519C111.979 82.9519 129.175 66.7634 130.781 46.1948L125.797 45.8056ZM128.404 43.5L128.285 43.5002L128.293 48.5002L128.412 48.5L128.404 43.5ZM400.596 43.0482L128.404 43.5L128.412 48.5L400.605 48.0482L400.596 43.0482ZM400.994 43.0475L400.596 43.0482L400.605 48.0482L401.002 48.0475L400.994 43.0475ZM438 74.9519C420.469 74.9519 405.953 62.0247 403.471 45.1831L398.524 45.912C401.362 65.171 417.953 79.9519 438 79.9519V74.9519ZM91 78.9519C110.829 78.9519 126.904 62.8773 126.904 43.0482H121.904C121.904 60.1159 108.068 73.9519 91 73.9519V78.9519ZM55.0963 43.0482C55.0963 62.8773 71.1709 78.9519 91 78.9519V73.9519C73.9323 73.9519 60.0963 60.1159 60.0963 43.0482H55.0963ZM91 7.14447C71.1709 7.14447 55.0963 23.2191 55.0963 43.0482H60.0963C60.0963 25.9805 73.9323 12.1445 91 12.1445V7.14447ZM126.904 43.0482C126.904 23.2191 110.829 7.14447 91 7.14447V12.1445C108.068 12.1445 121.904 25.9805 121.904 43.0482H126.904ZM785 75.9519C804.829 75.9519 820.904 59.8773 820.904 40.0482H815.904C815.904 57.1159 802.068 70.9519 785 70.9519V75.9519ZM749.096 40.0482C749.096 59.8773 765.171 75.9519 785 75.9519V70.9519C767.932 70.9519 754.096 57.1159 754.096 40.0482H749.096ZM785 4.14447C765.171 4.14447 749.096 20.2191 749.096 40.0482H754.096C754.096 22.9805 767.932 9.14447 785 9.14447V4.14447ZM820.904 40.0482C820.904 20.2191 804.829 4.14447 785 4.14447V9.14447C802.068 9.14447 815.904 22.9805 815.904 40.0482H820.904Z" fill="#DED03D" fill-opacity="0.838983"/>
<g clip-path="url(#clip0_14_3)">
<path d="M89.49 45.6182L89.4 36.9182C89.38 35.8982 89.27 35.2182 89.07 34.8782C88.89 34.5382 88.52 34.3682 87.96 34.3682C87.76 34.3682 87.47 34.3982 87.09 34.4582C86.71 34.4982 86.42 34.5182 86.22 34.5182C85.44 34.5182 85.05 34.1682 85.05 33.4682C85.05 32.7682 85.42 32.4182 86.16 32.4182C86.4 32.4182 86.77 32.4482 87.27 32.5082C87.79 32.5482 88.19 32.5682 88.47 32.5682C89.11 32.5682 89.64 32.5482 90.06 32.5082C90.68 32.4482 91.06 32.4182 91.2 32.4182C91.64 32.4182 91.91 32.5482 92.01 32.8082C92.09 32.9882 92.13 33.2982 92.13 33.7382C92.13 33.7982 92.12 34.0382 92.1 34.4582C92 36.5982 91.95 38.5382 91.95 40.2782V43.6682C91.95 44.2882 91.96 45.1182 91.98 46.1582C92.02 47.4182 92.04 48.2482 92.04 48.6482C92.06 50.0282 92.52 50.7182 93.42 50.7182C93.64 50.7182 93.97 50.6982 94.41 50.6582C94.85 50.5982 95.18 50.5682 95.4 50.5682C96.36 50.5682 96.84 50.9182 96.84 51.6182C96.84 52.3182 96.4 52.6682 95.52 52.6682C95.18 52.6682 94.86 52.6482 94.56 52.6082C92.88 52.3882 91.6 52.2782 90.72 52.2782C89.84 52.2782 88.76 52.3682 87.48 52.5482C86.76 52.6482 86.25 52.6982 85.95 52.6982C85.09 52.6982 84.66 52.3382 84.66 51.6182C84.66 50.9182 85.15 50.5682 86.13 50.5682C86.43 50.5682 86.74 50.5982 87.06 50.6582C87.54 50.6982 87.84 50.7182 87.96 50.7182C88.66 50.7182 89.09 50.4482 89.25 49.9082C89.41 49.3482 89.49 47.9182 89.49 45.6182Z" fill="#2FE0C3"/>
<path d="M430.005 47.0882C429.565 47.6082 429.295 48.2382 429.195 48.9782C430.095 48.0182 431.185 47.5382 432.465 47.5382C433.645 47.5382 434.885 48.0582 436.185 49.0982C437.625 50.2382 438.735 50.8082 439.515 50.8082C440.075 50.8082 440.525 50.6282 440.865 50.2682C441.225 49.8882 441.405 49.4082 441.405 48.8282C441.405 48.6282 441.365 48.4082 441.285 48.1682C440.965 48.4882 440.605 48.6482 440.205 48.6482C439.345 48.6482 438.915 48.2282 438.915 47.3882C438.915 46.9282 439.085 46.5482 439.425 46.2482C439.765 45.9482 440.215 45.7982 440.775 45.7982C441.515 45.7982 442.105 46.0682 442.545 46.6082C443.005 47.1282 443.235 47.8282 443.235 48.7082C443.235 49.9482 442.845 51.0082 442.065 51.8882C441.285 52.7682 440.335 53.2082 439.215 53.2082C438.155 53.2082 436.875 52.6382 435.375 51.4982C433.895 50.3582 432.595 49.7882 431.475 49.7882C430.355 49.7882 429.655 50.2082 429.375 51.0482C429.575 51.0082 429.695 50.9882 429.735 50.9882C430.315 50.9882 430.605 51.2782 430.605 51.8582C430.605 52.7582 430.105 53.2082 429.105 53.2082C428.445 53.2082 427.905 52.9282 427.485 52.3682C427.085 51.7882 426.885 51.0182 426.885 50.0582C426.885 46.5582 429.295 44.0382 434.115 42.4982L436.275 41.8082C438.695 41.0282 439.905 39.7182 439.905 37.8782C439.905 36.6382 439.465 35.6582 438.585 34.9382C437.725 34.2182 436.535 33.8582 435.015 33.8582C433.675 33.8582 432.565 34.1282 431.685 34.6682C430.805 35.2082 430.285 35.9482 430.125 36.8882C431.205 36.9682 431.745 37.4382 431.745 38.2982C431.745 38.8182 431.555 39.2682 431.175 39.6482C430.795 40.0082 430.325 40.1882 429.765 40.1882C429.085 40.1882 428.535 39.9582 428.115 39.4982C427.715 39.0182 427.515 38.3982 427.515 37.6382C427.515 35.9982 428.255 34.6282 429.735 33.5282C431.215 32.4282 433.045 31.8782 435.225 31.8782C437.345 31.8782 439.075 32.4382 440.415 33.5582C441.775 34.6582 442.455 36.0882 442.455 37.8482C442.455 39.0482 442.125 40.1082 441.465 41.0282C440.825 41.9482 439.925 42.6382 438.765 43.0982C438.405 43.2382 437.205 43.6582 435.165 44.3582C433.705 44.8582 432.535 45.3382 431.655 45.7982C431.015 46.1382 430.465 46.5682 430.005 47.0882Z" fill="#2FE0C3"/>
<path d="M784.5 40.8782L790.74 34.7582H783.78C783 34.7582 782.48 34.8082 782.22 34.9082C781.72 35.0682 781.47 35.4582 781.47 36.0782C781.47 36.2782 781.49 36.5682 781.53 36.9482C781.57 37.3282 781.59 37.6182 781.59 37.8182C781.59 38.8582 781.24 39.3782 780.54 39.3782C779.86 39.3782 779.52 38.9482 779.52 38.0882C779.52 37.8482 779.53 37.4882 779.55 37.0082C779.59 36.5082 779.61 36.1382 779.61 35.8982C779.61 35.3382 779.6 34.9182 779.58 34.6382C779.56 34.3582 779.55 34.0482 779.55 33.7082C779.55 33.1682 779.65 32.8382 779.85 32.7182C780.05 32.5782 780.55 32.5082 781.35 32.5082H788.73C789.13 32.5082 789.81 32.4882 790.77 32.4482C791.25 32.4282 791.81 32.4182 792.45 32.4182C793.63 32.4182 794.22 32.7782 794.22 33.4982C794.22 33.9582 793.97 34.4282 793.47 34.9082L787.95 40.2182C788.07 40.2182 788.23 40.2082 788.43 40.1882C788.61 40.1882 788.74 40.1882 788.82 40.1882C790.52 40.1882 791.91 40.7382 792.99 41.8382C794.09 42.9182 794.64 44.3082 794.64 46.0082C794.64 48.1282 793.86 49.8582 792.3 51.1982C790.76 52.5382 788.77 53.2082 786.33 53.2082C784.09 53.2082 782.22 52.6682 780.72 51.5882C779.22 50.4882 778.47 49.1182 778.47 47.4782C778.47 46.5382 778.74 45.7482 779.28 45.1082C779.82 44.4482 780.49 44.1182 781.29 44.1182C781.81 44.1182 782.23 44.2782 782.55 44.5982C782.89 44.8982 783.06 45.2982 783.06 45.7982C783.06 46.7982 782.47 47.2982 781.29 47.2982H780.96V47.5082C780.96 48.4882 781.5 49.3382 782.58 50.0582C783.68 50.7782 784.97 51.1382 786.45 51.1382C788.11 51.1382 789.47 50.6682 790.53 49.7282C791.59 48.7682 792.12 47.5482 792.12 46.0682C792.12 43.4682 790.64 42.1682 787.68 42.1682C786.9 42.1682 786.09 42.2582 785.25 42.4382C785.07 42.4782 784.9 42.4982 784.74 42.4982C784.26 42.4982 784.02 42.2382 784.02 41.7182C784.02 41.4782 784.18 41.1982 784.5 40.8782Z" fill="#2FE0C3"/>
</g>
<defs>
<clipPath id="clip0_14_3">
<rect width="716" height="35" fill="white" transform="translate(81 25.5482)"/>
</clipPath>
</defs>
</svg>
